<svg width="626" height="186" viewBox="0 0 626 186" fill="none" xmlns="http://www.w3.org/2000/svg">
<g clip-path="url(#clip0_21_560)">
<path d="M3.276 9H6.66V36H3.276V9ZM25.596 9H28.98V36H25.596V9ZM5.004 20.952H27.432V23.94H5.004V20.952ZM38.2511 29.304V26.424H57.2591V29.304H38.2511ZM49.8791 9L63.1631 36H59.4911L46.9991 10.152H48.7991L36.2711 36H32.5991L45.8831 9H49.8791ZM44.8391 1.512L50.0591 6.696H46.4591L40.7351 1.512H44.8391ZM91.7505 34.308L90.0945 34.416V9H93.3705V36H89.0145L68.4585 10.584L70.1145 10.476V36H66.8385V9H71.2305L91.7505 34.308ZM99.8854 9H103.269V36H99.8854V9ZM122.205 9H125.589V36H122.205V9ZM101.613 20.952H124.041V23.94H101.613V20.952ZM149.558 10.62H152.942V36H149.558V10.62ZM137.966 9H164.534V11.988H137.966V9ZM170.639 21.744H182.231C184.007 21.744 185.423 21.3 186.479 20.412C187.559 19.524 188.099 18.336 188.099 16.848C188.099 15.336 187.559 14.148 186.479 13.284C185.423 12.396 184.007 11.952 182.231 11.952H170.171L171.683 10.152V36H168.299V9H182.339C184.163 9 185.759 9.336 187.127 10.008C188.495 10.656 189.563 11.568 190.331 12.744C191.123 13.92 191.519 15.288 191.519 16.848C191.519 18.384 191.123 19.74 190.331 20.916C189.563 22.092 188.495 23.016 187.127 23.688C185.759 24.336 184.163 24.66 182.339 24.66H170.639V21.744ZM176.615 23.364H180.791L192.059 36H187.847L176.615 23.364ZM196.671 9H200.055V36H196.671V9ZM195.303 1.512L200.523 6.696H196.923L191.199 1.512H195.303ZM231.497 34.308L229.841 34.416V9H233.117V36H228.761L208.205 10.584L209.861 10.476V36H206.585V9H210.977L231.497 34.308ZM239.631 9H243.015V36H239.631V9ZM261.951 9H265.335V36H261.951V9ZM241.359 20.952H263.787V23.94H241.359V20.952Z" fill="#021326"/>
<path d="M60.0938 115.047H40.0312C42.0469 113.969 43.0312 112.797 43.0312 111.625C43.0312 111.531 42.9844 111.156 42.9375 110.453C42.8906 109.75 41.9062 108.109 40.0781 105.438C39.375 104.406 36.6094 99.9062 31.6875 91.8906L23.5781 78.8125L18.8438 83.3125V107.688C19.4531 111.016 21.8906 113.969 26.5781 115.047H1.3125C5.95312 113.969 8.4375 111.016 9 107.688V56.7812C8.4375 53.4062 5.95312 50.5 1.3125 49.4219H26.5781C21.8906 50.5 19.4531 53.4062 18.8438 56.7812V80.875L45.1406 55.8438C45.6562 54.6719 45.8906 53.6875 45.8906 52.7969C45.8906 51.25 45.1406 50.125 43.6406 49.4219H60.0938C55.2656 50.6875 51.1406 53.2656 46.3125 57.1562L25.5938 76.8906H32.1562C34.2656 80.2188 36.75 84.2969 39.6562 89.0312C44.25 96.4375 47.25 101.266 48.7031 103.516C50.5312 106.422 52.2188 108.719 53.8125 110.406C55.4062 112.094 57.5156 113.641 60.0938 115.047ZM82.7344 59.2188L81.4688 58L90.5625 47.3125L94.875 49.3281L82.7344 59.2188ZM84.7031 66.9062L83.6719 68.125L74.0156 60.4375L64.3594 68.125L63.3281 66.9062L72.8438 56.2188H75.1875L84.7031 66.9062ZM75.6562 116.406C67.9688 116.406 61.6875 113.172 56.7656 106.703C53.7188 102.578 52.1719 98.0781 52.1719 93.1562C52.0312 80.6406 61.9688 69.7188 74.6719 69.9062C79.9688 69.9062 84.3281 71.3125 87.7969 74.125C91.2656 76.9375 93.4219 81.0156 94.2656 86.4062L94.5 88.0938L61.7812 93.9062C63.375 103.141 69.5156 111.25 80.3906 111.25C84.1406 111.203 88.9688 109.938 92.8594 107.359C91.4062 110.172 89.0625 112.375 85.875 114.016C82.6875 115.609 79.2656 116.406 75.6562 116.406ZM61.5 92.2188L86.6719 87.7188C86.25 83.7344 84.9844 80.2188 82.875 77.0781C80.3906 73.375 77.3438 71.5469 73.6875 71.5469C69.2812 71.5469 65.9531 73.7031 63.75 78.0625C62.1094 81.2031 61.3125 84.8125 61.3125 88.9375C61.3125 90.0156 61.3594 91.0938 61.5 92.2188ZM109.5 115.141C103.781 115.141 98.3438 111.953 98.3438 102.344V72.1562H93.2344L95.0156 70.4219H98.3438V66.8594L108.188 62.4531V70.4219H121.734L119.906 72.1562H108.188V102.672C108.188 108.016 111 110.219 114.094 110.219C116.344 110.219 118.547 109.281 120.656 107.359C120.094 109.609 118.781 111.484 116.719 112.938C114.703 114.391 112.266 115.141 109.5 115.141ZM197.344 115H172.078C176.766 114.016 179.203 111.016 179.812 107.688V85.1875C179.812 81.7656 179.438 79.0469 178.641 77.0312C177.562 74.8281 176.156 73.7031 174.328 73.7031C172.875 73.7031 171.469 74.0312 170.156 74.6406C166.547 76.375 163.828 78.8594 161.953 82V107.688C162.516 111.016 164.953 114.016 169.641 115H144.375C149.062 114.016 151.5 111.016 152.109 107.688V77.8281L145.5 74.9688L161.953 71.2656V78.9531C162.984 77.6406 164.203 76.4688 165.562 75.4375C169.172 72.6719 173.016 71.2656 177.141 71.2656C185.484 71.2656 189.656 75.9062 189.656 85.1875V107.688C190.219 111.016 192.656 114.016 197.344 115ZM227.766 59.2188L226.5 58L235.594 47.3125L239.906 49.3281L227.766 59.2188ZM229.734 66.9062L228.703 68.125L219.047 60.4375L209.391 68.125L208.359 66.9062L217.875 56.2188H220.219L229.734 66.9062ZM219.094 116.688C206.156 116.875 195.234 106.047 195.375 93.1562C195.234 80.3125 206.156 69.4375 219.094 69.5781C231.984 69.4375 242.953 80.3125 242.766 93.1562C242.953 106.047 231.984 116.875 219.094 116.688ZM222.75 114.531C223.406 114.531 224.062 114.438 224.766 114.297C228.234 113.219 230.766 110.359 232.312 105.766C233.156 103.375 233.578 100.797 233.578 98.0312C233.578 95.4531 233.203 92.7344 232.5 89.875C230.766 83.9219 228.047 79.2344 224.344 75.8594C221.344 73.1406 218.391 71.7812 215.438 71.7812C214.781 71.7812 214.125 71.875 213.422 72.0156C209.906 73.0938 207.375 75.9531 205.828 80.5469C205.031 82.9375 204.609 85.4688 204.609 88.2344C204.609 90.8125 204.984 93.5312 205.688 96.4375C207.422 102.391 210.141 107.078 213.844 110.406C216.844 113.172 219.797 114.531 222.75 114.531ZM265.969 115H240.703C245.391 114.016 247.828 111.016 248.391 107.688V77.8281L241.781 74.9688L258.234 71.2656V107.688C258.844 111.016 261.281 114.016 265.969 115ZM253.359 66.9062C251.766 66.9062 250.406 66.3438 249.281 65.2188C248.156 64.0938 247.594 62.7344 247.594 61.1406C247.594 59.5469 248.156 58.1875 249.281 57.0625C250.406 55.9375 251.766 55.375 253.359 55.375C254.953 55.375 256.312 55.9375 257.438 57.0625C258.562 58.1875 259.125 59.5469 259.125 61.1406C259.125 62.7344 258.562 64.0938 257.438 65.2188C256.312 66.3438 254.953 66.9062 253.359 66.9062ZM341.578 115H316.312C321 114.016 323.438 111.016 324.047 107.688V85.1875C324.047 81.7656 323.672 79.0469 322.875 77.0312C321.797 74.8281 320.391 73.7031 318.562 73.7031C317.109 73.7031 315.703 74.0312 314.391 74.6406C309.984 76.75 306.891 79.9375 305.062 84.1562V107.688C305.625 111.016 308.109 114.016 312.75 115H287.531C292.172 114.016 294.656 111.016 295.219 107.688V52.3281L288.609 49.4219L305.062 45.7188V80.4531C306.328 78.5312 307.875 76.8906 309.797 75.4375C313.406 72.6719 317.25 71.2656 321.375 71.2656C329.719 71.2656 333.891 75.9062 333.891 85.1875V107.688C334.453 111.016 336.891 114.016 341.578 115ZM385.031 111.344L368.625 115V107.359C367.547 108.672 366.375 109.844 365.016 110.875C361.406 113.641 357.516 115 353.391 115C345.047 115 340.875 110.359 340.875 101.125V78.625C340.312 75.2969 337.875 72.3438 333.188 71.2656H358.453C353.766 72.3438 351.328 75.2969 350.719 78.625V101.125C350.719 104.5 351.094 107.219 351.891 109.281C352.969 111.484 354.422 112.609 356.25 112.609C357.609 112.609 358.969 112.281 360.422 111.625C363.938 109.984 366.656 107.547 368.625 104.312V78.625C368.016 75.2969 365.578 72.3438 360.891 71.2656H378.422V72.1094C379.594 71.6406 380.766 70.8438 381.844 69.7656C379.734 69.2031 378.234 67.375 378.234 65.125C378.234 62.5 380.391 60.3438 383.016 60.3438C385.688 60.3438 387.844 62.5 387.844 65.125C387.844 68.0781 386.391 70.375 383.484 72.0156C382.031 72.8594 380.344 73.4688 378.422 73.8438V108.438L385.031 111.344ZM408.844 116.688C395.906 116.875 384.984 106.047 385.125 93.1562C384.984 80.3125 395.906 69.4375 408.844 69.5781C413.203 69.5781 417.141 70.6562 420.75 72.7656V72.8125L422.016 72.5312C423.844 72.2031 425.484 71.3125 427.031 69.7656C424.922 69.2031 423.422 67.375 423.422 65.125C423.422 62.5 425.578 60.3438 428.203 60.3438C430.875 60.3438 433.031 62.5 433.031 65.125C433.031 68.0781 431.578 70.375 428.672 72.0156C426.938 73 424.969 73.6562 422.672 74.0312C425.344 75.9531 427.594 78.3906 429.328 81.2969C431.438 84.8594 432.516 88.7969 432.516 93.1562C432.703 106.047 421.734 116.875 408.844 116.688ZM412.5 114.531C413.156 114.531 413.812 114.438 414.516 114.297C417.984 113.219 420.516 110.359 422.062 105.766C422.906 103.375 423.328 100.797 423.328 98.0312C423.328 95.4531 422.953 92.7344 422.25 89.875C420.516 83.9219 417.797 79.2344 414.094 75.8594C411.094 73.1406 408.141 71.7812 405.188 71.7812C404.531 71.7812 403.875 71.875 403.172 72.0156C399.656 73.0938 397.125 75.9531 395.578 80.5469C394.781 82.9375 394.359 85.4688 394.359 88.2344C394.359 90.8125 394.734 93.5312 395.438 96.4375C397.172 102.391 399.891 107.078 403.594 110.406C406.594 113.172 409.547 114.531 412.5 114.531ZM483.469 115H458.203C462.891 114.016 465.328 111.016 465.938 107.688V85.1875C465.938 81.7656 465.562 79.0469 464.766 77.0312C463.688 74.8281 462.281 73.7031 460.453 73.7031C459 73.7031 457.594 74.0312 456.281 74.6406C452.672 76.375 449.953 78.8594 448.078 82V107.688C448.641 111.016 451.078 114.016 455.766 115H430.5C435.188 114.016 437.625 111.016 438.234 107.688V77.8281L431.625 74.9688L448.078 71.2656V78.9531C449.109 77.6406 450.328 76.4688 451.688 75.4375C455.297 72.6719 459.141 71.2656 463.266 71.2656C471.609 71.2656 475.781 75.9062 475.781 85.1875V107.688C476.344 111.016 478.781 114.016 483.469 115ZM503.625 165.203C489.422 165.297 478.781 156.203 475.594 145.234C474.938 142.984 474.609 140.688 474.609 138.344C474.609 136.797 474.75 135.203 475.031 133.656L485.531 136.375C484.078 139.609 483.375 142.609 483.375 145.422C483.375 147.062 483.797 149.266 484.688 152.078C485.578 154.891 487.922 157.516 491.719 160C495.516 162.484 499.781 163.75 504.609 163.75C510.562 163.75 515.578 160.562 519.094 155.828C522.422 151.375 524.062 146.453 524.062 141.156C524.062 140.641 524.016 139.516 523.875 137.875C523.781 136.234 523.031 134.219 521.578 131.828C518.719 127.094 513.141 123.953 504.188 123.953C496.125 123.953 489.75 126.203 483.984 129.156L483.328 127.656C489.234 124.516 494.156 120.484 498.094 115.609C493.172 114.062 489.188 111.25 486.094 107.172C483.047 103.094 481.5 98.4531 481.5 93.1562C481.312 80.3125 492.234 69.4375 505.219 69.5781C506.203 69.5781 507.141 69.625 508.125 69.7656C509.344 69.9062 510.562 69.9531 511.734 69.9531C513.469 69.9531 515.438 69.7656 517.594 69.3906C519.797 69.0156 521.766 67.8906 523.594 66.0625C521.109 65.3594 519.281 63.1562 519.281 60.4844C519.281 58.8906 519.844 57.5312 520.969 56.4062C522.094 55.2812 523.453 54.7188 525.047 54.7188C526.641 54.7188 528 55.2812 529.125 56.4062C530.25 57.5312 530.812 58.8906 530.812 60.4844C530.812 64.0469 529.078 66.8125 525.562 68.7812C522.656 70.4219 519 71.3125 514.641 71.5469C518.906 73.4219 522.328 76.2812 524.953 80.125C527.578 83.9688 528.891 88.3281 528.891 93.1562C529.078 106.047 518.109 116.875 505.219 116.688C503.391 116.688 501.656 116.5 499.922 116.125C497.438 119.359 494.531 122.266 491.25 124.75C497.625 122.688 503.156 121.656 507.844 121.656C518.203 121.656 525.328 125.078 529.406 130.281C532.078 133.703 533.438 137.594 533.438 141.859C533.438 143.922 533.016 146.219 532.172 148.797C531.375 151.375 529.688 153.953 527.203 156.531C522.281 161.734 514.359 165.203 503.625 165.203ZM508.828 114.531C509.531 114.531 510.188 114.438 510.844 114.297C514.359 113.219 516.891 110.359 518.438 105.766C519.234 103.375 519.656 100.844 519.656 98.0781C519.656 95.5 519.281 92.7812 518.578 89.875C516.844 83.9219 514.125 79.2344 510.422 75.8594C507.422 73.1406 504.469 71.7812 501.562 71.7812C500.906 71.7812 500.25 71.875 499.547 72.0156C496.031 73.0938 493.5 75.9531 491.953 80.5469C491.156 82.9375 490.734 85.4688 490.734 88.2344C490.734 90.8125 491.109 93.5312 491.812 96.4375C493.734 103.047 496.828 108.016 501.047 111.344C504.234 106.047 505.828 100.234 505.828 93.9062H507.562V94.75C507.562 100.938 505.875 106.797 502.453 112.375C504.656 113.828 506.766 114.531 508.828 114.531ZM579.281 115H577.359L561.562 81.3438C560.484 78.8125 559.172 76.6562 557.625 74.875C556.125 73.0938 553.828 71.875 550.734 71.2656H576.188C573.891 71.7812 572.156 72.8125 571.031 74.3594C570.422 75.2031 570.141 76.1406 570.141 77.1719C570.141 78.0625 570.375 79 570.797 80.0312L582.094 104.125C583.734 100.516 585.469 96.8594 587.203 93.25C589.172 89.1719 591.094 85.0469 592.922 80.9688C593.344 79.8906 593.578 78.9062 593.578 77.9688C593.578 74.9219 591.703 72.7188 587.953 71.2656H604.406C600.141 72.6719 596.906 76.0469 594.656 81.3438C592.828 85.3281 591 89.2656 589.078 93.2031C585.562 100.469 582.281 107.734 579.281 115ZM613.875 131.219C611.062 131.219 608.766 128.922 608.766 126.109C608.766 123.297 611.062 121 613.875 121C616.688 121 618.984 123.297 618.984 126.109C618.984 128.922 616.688 131.219 613.875 131.219ZM626.531 115H601.266C605.953 114.016 608.391 111.016 608.953 107.688V77.8281L602.344 74.9688L618.797 71.2656V107.688C619.406 111.016 621.844 114.016 626.531 115ZM613.922 66.9062C612.328 66.9062 610.969 66.3438 609.844 65.2188C608.719 64.0938 608.156 62.7344 608.156 61.1406C608.156 59.5469 608.719 58.1875 609.844 57.0625C610.969 55.9375 612.328 55.375 613.922 55.375C615.516 55.375 616.875 55.9375 618 57.0625C619.125 58.1875 619.688 59.5469 619.688 61.1406C619.688 62.7344 619.125 64.0938 618 65.2188C616.875 66.3438 615.516 66.9062 613.922 66.9062Z" fill="#E02B00"/>
<path d="M18.504 173.652H15.336L25.74 150H33.624L21.06 177H12.6L0.036 150H8.028L18.504 173.652ZM35.6605 156.12L39.3685 156.84L43.0405 156.12V177H35.6605V156.12ZM39.3325 154.428C38.0605 154.428 37.0285 154.116 36.2365 153.492C35.4445 152.844 35.0485 151.968 35.0485 150.864C35.0485 149.784 35.4445 148.92 36.2365 148.272C37.0285 147.624 38.0605 147.3 39.3325 147.3C40.6525 147.3 41.6965 147.624 42.4645 148.272C43.2565 148.92 43.6525 149.784 43.6525 150.864C43.6525 151.968 43.2565 152.844 42.4645 153.492C41.6965 154.116 40.6525 154.428 39.3325 154.428ZM59.1463 177.576C56.6503 177.576 54.4183 177.12 52.4503 176.208C50.5063 175.296 48.9703 174.024 47.8423 172.392C46.7143 170.736 46.1503 168.816 46.1503 166.632C46.1503 164.496 46.6903 162.624 47.7703 161.016C48.8503 159.384 50.3263 158.112 52.1983 157.2C54.0943 156.288 56.2303 155.832 58.6063 155.832C61.0783 155.832 63.1783 156.372 64.9063 157.452C66.6583 158.508 68.0023 160.008 68.9383 161.952C69.8983 163.896 70.3783 166.188 70.3783 168.828H52.0903V164.4H66.2383L63.8263 165.948C63.7303 164.892 63.4663 164.004 63.0343 163.284C62.6023 162.54 62.0263 161.976 61.3063 161.592C60.6103 161.208 59.7703 161.016 58.7863 161.016C57.7063 161.016 56.7823 161.232 56.0143 161.664C55.2463 162.096 54.6463 162.696 54.2143 163.464C53.7823 164.208 53.5663 165.084 53.5663 166.092C53.5663 167.388 53.8543 168.492 54.4303 169.404C55.0303 170.292 55.8943 170.976 57.0223 171.456C58.1743 171.936 59.5783 172.176 61.2343 172.176C62.7463 172.176 64.2463 171.984 65.7343 171.6C67.2463 171.192 68.6143 170.628 69.8383 169.908V174.588C68.4223 175.548 66.8023 176.292 64.9783 176.82C63.1783 177.324 61.2343 177.576 59.1463 177.576ZM58.6783 185.856C57.4063 185.856 56.3743 185.532 55.5823 184.884C54.7903 184.26 54.3943 183.396 54.3943 182.292C54.3943 181.212 54.7903 180.348 55.5823 179.7C56.3743 179.052 57.4063 178.728 58.6783 178.728C59.9983 178.728 61.0423 179.052 61.8103 179.7C62.6023 180.348 62.9983 181.212 62.9983 182.292C62.9983 183.396 62.6023 184.26 61.8103 184.884C61.0423 185.532 59.9983 185.856 58.6783 185.856ZM54.8263 147.624H62.3503L67.4983 154.428H61.7023L56.8783 149.424H60.2983L55.5103 154.428H49.6783L54.8263 147.624ZM71.3019 161.88V158.676L75.4779 156.984L78.6459 150.9H82.8219V156.444H91.4619V161.88H82.8219V167.928C82.8219 169.416 83.1219 170.46 83.7219 171.06C84.3219 171.66 85.4139 171.96 86.9979 171.96C88.0059 171.96 88.8939 171.876 89.6619 171.708C90.4539 171.516 91.1739 171.276 91.8219 170.988V176.532C91.1019 176.796 90.1539 177.036 88.9779 177.252C87.8019 177.468 86.5899 177.576 85.3419 177.576C83.0619 177.576 81.1899 177.228 79.7259 176.532C78.2859 175.836 77.2179 174.84 76.5219 173.544C75.8259 172.224 75.4779 170.688 75.4779 168.936V161.88H71.3019ZM129.247 171.78L126.943 172.248V150H134.179V177H124.783L109.195 154.788L111.463 154.32V177H104.227V150H113.875L129.247 171.78ZM156.963 177L156.027 169.584L156.999 166.74L156.027 163.896L156.963 156.444H164.595L163.299 166.704L164.595 177H156.963ZM158.691 166.74C158.355 168.9 157.683 170.796 156.675 172.428C155.691 174.06 154.431 175.332 152.895 176.244C151.383 177.132 149.655 177.576 147.711 177.576C145.695 177.576 143.919 177.132 142.383 176.244C140.871 175.332 139.683 174.06 138.819 172.428C137.955 170.772 137.523 168.876 137.523 166.74C137.523 164.556 137.955 162.648 138.819 161.016C139.683 159.384 140.871 158.112 142.383 157.2C143.919 156.288 145.695 155.832 147.711 155.832C149.655 155.832 151.383 156.288 152.895 157.2C154.431 158.088 155.703 159.348 156.711 160.98C157.719 162.588 158.379 164.508 158.691 166.74ZM144.975 166.74C144.975 167.748 145.179 168.648 145.587 169.44C146.019 170.232 146.607 170.856 147.351 171.312C148.095 171.744 148.947 171.96 149.907 171.96C150.915 171.96 151.863 171.744 152.751 171.312C153.639 170.856 154.419 170.232 155.091 169.44C155.763 168.648 156.267 167.748 156.603 166.74C156.267 165.708 155.763 164.796 155.091 164.004C154.419 163.212 153.639 162.588 152.751 162.132C151.863 161.676 150.915 161.448 149.907 161.448C148.947 161.448 148.095 161.676 147.351 162.132C146.607 162.588 146.019 163.212 145.587 164.004C145.179 164.796 144.975 165.708 144.975 166.74ZM167.157 156.444H174.537L175.869 164.652V177H168.525V163.536L167.157 156.444ZM182.961 155.832C184.857 155.832 186.465 156.228 187.785 157.02C189.105 157.812 190.113 158.928 190.809 160.368C191.505 161.808 191.853 163.512 191.853 165.48V177H184.509V166.56C184.509 165.024 184.161 163.848 183.465 163.032C182.769 162.216 181.761 161.808 180.441 161.808C179.505 161.808 178.689 162.024 177.993 162.456C177.321 162.888 176.793 163.5 176.409 164.292C176.049 165.084 175.869 166.02 175.869 167.1L173.601 165.912C173.889 163.728 174.477 161.892 175.365 160.404C176.253 158.892 177.345 157.752 178.641 156.984C179.961 156.216 181.401 155.832 182.961 155.832ZM198.909 155.832C200.805 155.832 202.413 156.228 203.733 157.02C205.077 157.812 206.097 158.928 206.793 160.368C207.489 161.808 207.837 163.512 207.837 165.48V177H200.493V166.56C200.493 165.024 200.145 163.848 199.449 163.032C198.753 162.216 197.745 161.808 196.425 161.808C195.489 161.808 194.673 162.024 193.977 162.456C193.305 162.888 192.777 163.5 192.393 164.292C192.033 165.084 191.853 166.02 191.853 167.1L189.585 165.912C189.873 163.728 190.449 161.892 191.313 160.404C192.201 158.892 193.305 157.752 194.625 156.984C195.945 156.216 197.373 155.832 198.909 155.832ZM220.475 161.52H229.943V167.316H220.475V161.52ZM268.36 171.78L266.056 172.248V150H273.292V177H263.896L248.308 154.788L250.576 154.32V177H243.34V150H252.988L268.36 171.78ZM296.076 177L295.14 169.584L296.112 166.74L295.14 163.896L296.076 156.444H303.708L302.412 166.704L303.708 177H296.076ZM297.804 166.74C297.468 168.9 296.796 170.796 295.788 172.428C294.804 174.06 293.544 175.332 292.008 176.244C290.496 177.132 288.768 177.576 286.824 177.576C284.808 177.576 283.032 177.132 281.496 176.244C279.984 175.332 278.796 174.06 277.932 172.428C277.068 170.772 276.636 168.876 276.636 166.74C276.636 164.556 277.068 162.648 277.932 161.016C278.796 159.384 279.984 158.112 281.496 157.2C283.032 156.288 284.808 155.832 286.824 155.832C288.768 155.832 290.496 156.288 292.008 157.2C293.544 158.088 294.816 159.348 295.824 160.98C296.832 162.588 297.492 164.508 297.804 166.74ZM284.088 166.74C284.088 167.748 284.292 168.648 284.7 169.44C285.132 170.232 285.72 170.856 286.464 171.312C287.208 171.744 288.06 171.96 289.02 171.96C290.028 171.96 290.976 171.744 291.864 171.312C292.752 170.856 293.532 170.232 294.204 169.44C294.876 168.648 295.38 167.748 295.716 166.74C295.38 165.708 294.876 164.796 294.204 164.004C293.532 163.212 292.752 162.588 291.864 162.132C290.976 161.676 290.028 161.448 289.02 161.448C288.06 161.448 287.208 161.676 286.464 162.132C285.72 162.588 285.132 163.212 284.7 164.004C284.292 164.796 284.088 165.708 284.088 166.74ZM325.066 171.816V168.324L325.318 167.46V162.42L325.066 161.664V156.444H332.41V171.528C332.41 174.048 331.822 176.208 330.646 178.008C329.47 179.808 327.826 181.176 325.714 182.112C323.626 183.048 321.154 183.516 318.298 183.516C316.402 183.516 314.638 183.264 313.006 182.76C311.398 182.28 309.79 181.56 308.182 180.6V175.056C309.67 176.16 311.23 176.952 312.862 177.432C314.518 177.936 316.174 178.188 317.83 178.188C320.182 178.188 321.97 177.684 323.194 176.676C324.442 175.668 325.066 174.048 325.066 171.816ZM316.246 174.84C314.302 174.84 312.574 174.444 311.062 173.652C309.55 172.86 308.35 171.756 307.462 170.34C306.598 168.9 306.166 167.232 306.166 165.336C306.166 163.416 306.598 161.748 307.462 160.332C308.35 158.916 309.55 157.812 311.062 157.02C312.574 156.228 314.302 155.832 316.246 155.832C317.686 155.832 319.006 156.06 320.206 156.516C321.406 156.948 322.474 157.536 323.41 158.28C324.346 159 325.126 159.792 325.75 160.656C326.398 161.496 326.89 162.336 327.226 163.176C327.562 164.016 327.73 164.76 327.73 165.408C327.73 166.296 327.466 167.28 326.938 168.36C326.434 169.44 325.69 170.472 324.706 171.456C323.722 172.44 322.51 173.256 321.07 173.904C319.654 174.528 318.046 174.84 316.246 174.84ZM318.73 169.836C320.146 169.836 321.406 169.464 322.51 168.72C323.614 167.976 324.55 166.848 325.318 165.336C324.526 163.8 323.578 162.672 322.474 161.952C321.37 161.208 320.122 160.836 318.73 160.836C317.674 160.836 316.75 161.016 315.958 161.376C315.19 161.736 314.602 162.264 314.194 162.96C313.786 163.632 313.582 164.424 313.582 165.336C313.582 166.224 313.786 167.016 314.194 167.712C314.602 168.384 315.19 168.912 315.958 169.296C316.726 169.656 317.65 169.836 318.73 169.836ZM354.963 177L354.027 169.584L354.999 166.74L354.027 163.896L354.963 156.444H362.595L361.299 166.704L362.595 177H354.963ZM356.691 166.74C356.355 168.9 355.683 170.796 354.675 172.428C353.691 174.06 352.431 175.332 350.895 176.244C349.383 177.132 347.655 177.576 345.711 177.576C343.695 177.576 341.919 177.132 340.383 176.244C338.871 175.332 337.683 174.06 336.819 172.428C335.955 170.772 335.523 168.876 335.523 166.74C335.523 164.556 335.955 162.648 336.819 161.016C337.683 159.384 338.871 158.112 340.383 157.2C341.919 156.288 343.695 155.832 345.711 155.832C347.655 155.832 349.383 156.288 350.895 157.2C352.431 158.088 353.703 159.348 354.711 160.98C355.719 162.588 356.379 164.508 356.691 166.74ZM342.975 166.74C342.975 167.748 343.179 168.648 343.587 169.44C344.019 170.232 344.607 170.856 345.351 171.312C346.095 171.744 346.947 171.96 347.907 171.96C348.915 171.96 349.863 171.744 350.751 171.312C351.639 170.856 352.419 170.232 353.091 169.44C353.763 168.648 354.267 167.748 354.603 166.74C354.267 165.708 353.763 164.796 353.091 164.004C352.419 163.212 351.639 162.588 350.751 162.132C349.863 161.676 348.915 161.448 347.907 161.448C346.947 161.448 346.095 161.676 345.351 162.132C344.607 162.588 344.019 163.212 343.587 164.004C343.179 164.796 342.975 165.708 342.975 166.74ZM389.891 170.304C389.891 171.888 389.411 173.22 388.451 174.3C387.491 175.38 386.123 176.196 384.347 176.748C382.571 177.3 380.435 177.576 377.939 177.576C375.371 177.576 373.115 177.264 371.171 176.64C369.251 176.016 367.751 175.14 366.671 174.012C365.591 172.884 365.015 171.576 364.943 170.088H372.395C372.563 170.64 372.887 171.12 373.367 171.528C373.871 171.912 374.531 172.212 375.347 172.428C376.163 172.62 377.135 172.716 378.263 172.716C379.727 172.716 380.831 172.572 381.575 172.284C382.343 171.996 382.727 171.564 382.727 170.988C382.727 170.532 382.439 170.196 381.863 169.98C381.287 169.74 380.303 169.56 378.911 169.44L375.275 169.152C372.851 168.984 370.919 168.624 369.479 168.072C368.063 167.496 367.043 166.764 366.419 165.876C365.795 164.964 365.483 163.932 365.483 162.78C365.483 161.22 365.963 159.936 366.923 158.928C367.907 157.896 369.263 157.128 370.991 156.624C372.743 156.096 374.783 155.832 377.111 155.832C379.415 155.832 381.467 156.132 383.267 156.732C385.067 157.332 386.507 158.172 387.587 159.252C388.667 160.308 389.291 161.556 389.459 162.996H382.007C381.887 162.54 381.623 162.132 381.215 161.772C380.807 161.388 380.243 161.076 379.523 160.836C378.803 160.596 377.879 160.476 376.751 160.476C375.431 160.476 374.423 160.62 373.727 160.908C373.055 161.196 372.719 161.604 372.719 162.132C372.719 162.54 372.923 162.864 373.331 163.104C373.763 163.344 374.555 163.512 375.707 163.608L380.495 163.968C382.871 164.112 384.743 164.46 386.111 165.012C387.479 165.54 388.451 166.248 389.027 167.136C389.603 168.024 389.891 169.08 389.891 170.304ZM411.565 177L410.629 169.584L411.601 166.74L410.629 163.896L411.565 156.444H419.197L417.901 166.704L419.197 177H411.565ZM413.293 166.74C412.957 168.9 412.285 170.796 411.277 172.428C410.293 174.06 409.033 175.332 407.497 176.244C405.985 177.132 404.257 177.576 402.313 177.576C400.297 177.576 398.521 177.132 396.985 176.244C395.473 175.332 394.285 174.06 393.421 172.428C392.557 170.772 392.125 168.876 392.125 166.74C392.125 164.556 392.557 162.648 393.421 161.016C394.285 159.384 395.473 158.112 396.985 157.2C398.521 156.288 400.297 155.832 402.313 155.832C404.257 155.832 405.985 156.288 407.497 157.2C409.033 158.088 410.305 159.348 411.313 160.98C412.321 162.588 412.981 164.508 413.293 166.74ZM399.577 166.74C399.577 167.748 399.781 168.648 400.189 169.44C400.621 170.232 401.209 170.856 401.953 171.312C402.697 171.744 403.549 171.96 404.509 171.96C405.517 171.96 406.465 171.744 407.353 171.312C408.241 170.856 409.021 170.232 409.693 169.44C410.365 168.648 410.869 167.748 411.205 166.74C410.869 165.708 410.365 164.796 409.693 164.004C409.021 163.212 408.241 162.588 407.353 162.132C406.465 161.676 405.517 161.448 404.509 161.448C403.549 161.448 402.697 161.676 401.953 162.132C401.209 162.588 400.621 163.212 400.189 164.004C399.781 164.796 399.577 165.708 399.577 166.74ZM430.111 171.132L428.095 170.448L439.471 156.444H447.211L429.319 177H422.731V149.28H430.111V171.132ZM433.603 166.956L439.147 163.068L447.751 177H439.471L433.603 166.956ZM449.485 156.12L453.193 156.84L456.865 156.12V177H449.485V156.12ZM453.157 154.428C451.885 154.428 450.853 154.116 450.061 153.492C449.269 152.844 448.873 151.968 448.873 150.864C448.873 149.784 449.269 148.92 450.061 148.272C450.853 147.624 451.885 147.3 453.157 147.3C454.477 147.3 455.521 147.624 456.289 148.272C457.081 148.92 457.477 149.784 457.477 150.864C457.477 151.968 457.081 152.844 456.289 153.492C455.521 154.116 454.477 154.428 453.157 154.428Z" fill="#04264C"/>
</g>
<defs>
<clipPath id="clip0_21_560">
<rect width="626" height="186" fill="white"/>
</clipPath>
</defs>
</svg>
