<svg width="106" height="137" viewBox="0 0 106 137" fill="none" xmlns="http://www.w3.org/2000/svg">
<path d="M33.9906 41L36.9186 35.464V35.92L34.0866 30.776H36.3346L38.3826 34.624H38.5026L40.5506 30.776H42.7986L39.9586 35.92V35.464L42.8866 41H40.5906L38.5026 36.888H38.3746L36.2866 41H33.9906ZM47.2168 41.192C45.8728 41.192 44.8728 40.8827 44.2168 40.264C43.5608 39.6453 43.2328 38.7493 43.2328 37.576V36.552C43.2328 35.3893 43.5395 34.496 44.1528 33.872C44.7661 33.248 45.6568 32.936 46.8248 32.936C47.6141 32.936 48.2728 33.0747 48.8008 33.352C49.3288 33.6293 49.7235 34.024 49.9848 34.536C50.2515 35.0427 50.3848 35.6507 50.3848 36.36V36.64C50.3848 36.832 50.3741 37.0293 50.3528 37.232C50.3368 37.4293 50.3128 37.616 50.2808 37.792H48.4248C48.4408 37.4987 48.4488 37.2213 48.4488 36.96C48.4541 36.6933 48.4568 36.4533 48.4568 36.24C48.4568 35.872 48.3981 35.56 48.2808 35.304C48.1635 35.0427 47.9848 34.8453 47.7448 34.712C47.5048 34.5787 47.1981 34.512 46.8248 34.512C46.2755 34.512 45.8701 34.664 45.6088 34.968C45.3475 35.272 45.2168 35.704 45.2168 36.264V36.992L45.2248 37.224V37.84C45.2248 38.0853 45.2621 38.312 45.3368 38.52C45.4168 38.728 45.5475 38.9093 45.7288 39.064C45.9101 39.2133 46.1501 39.3307 46.4488 39.416C46.7528 39.5013 47.1315 39.544 47.5848 39.544C48.0755 39.544 48.5421 39.4907 48.9848 39.384C49.4328 39.272 49.8568 39.1227 50.2568 38.936L50.0808 40.552C49.7235 40.7493 49.3021 40.904 48.8168 41.016C48.3368 41.1333 47.8035 41.192 47.2168 41.192ZM44.3208 37.792V36.432H49.8648V37.792H44.3208ZM61.4977 41V36.232C61.4977 35.912 61.4577 35.6373 61.3777 35.408C61.2977 35.1733 61.1644 34.992 60.9777 34.864C60.7964 34.736 60.5484 34.672 60.2337 34.672C59.9457 34.672 59.695 34.728 59.4817 34.84C59.2684 34.952 59.095 35.104 58.9617 35.296C58.8284 35.4827 58.7297 35.696 58.6657 35.936L58.4417 34.816H58.6497C58.735 34.48 58.8737 34.1733 59.0657 33.896C59.2577 33.6133 59.519 33.3893 59.8497 33.224C60.1857 33.0587 60.6097 32.976 61.1217 32.976C61.6924 32.976 62.1537 33.088 62.5057 33.312C62.863 33.5307 63.127 33.8613 63.2977 34.304C63.4684 34.7413 63.5537 35.2853 63.5537 35.936V41H61.4977ZM51.8257 41V33.152H53.8737L53.7937 35.144L53.8737 35.232V41H51.8257ZM56.6657 41V36.232C56.6657 35.912 56.6257 35.6373 56.5457 35.408C56.4657 35.1733 56.3324 34.992 56.1457 34.864C55.9644 34.736 55.7164 34.672 55.4017 34.672C55.1084 34.672 54.855 34.728 54.6417 34.84C54.4337 34.952 54.2604 35.104 54.1217 35.296C53.9884 35.4827 53.8897 35.696 53.8257 35.936L53.5057 34.816H53.8897C53.9697 34.4693 54.103 34.1573 54.2897 33.88C54.4817 33.6027 54.7404 33.384 55.0657 33.224C55.391 33.0587 55.7964 32.976 56.2817 32.976C57.0124 32.976 57.5617 33.1627 57.9297 33.536C58.303 33.9093 58.5377 34.4533 58.6337 35.168C58.655 35.2747 58.6737 35.4 58.6897 35.544C58.7057 35.6827 58.7137 35.8133 58.7137 35.936V41H56.6657ZM71.5844 41.168C70.9178 41.168 70.3844 41.0693 69.9844 40.872C69.5898 40.6693 69.3044 40.3653 69.1284 39.96C68.9524 39.5547 68.8644 39.056 68.8644 38.464V33.888H70.8964V38.16C70.8964 38.5867 70.9924 38.9013 71.1844 39.104C71.3818 39.3013 71.7258 39.4 72.2164 39.4C72.5044 39.4 72.7818 39.3707 73.0484 39.312C73.3151 39.248 73.5604 39.1653 73.7844 39.064L73.6084 40.776C73.3418 40.8987 73.0351 40.9947 72.6884 41.064C72.3471 41.1333 71.9791 41.168 71.5844 41.168ZM67.7284 34.832V33.216H73.7124L73.5364 34.832H67.7284ZM68.8884 33.368L68.8804 31.288L70.9204 31.08L70.8404 33.368H68.8884ZM79.5728 41L79.6448 39.08L79.5888 38.904V36.448L79.5808 36.096C79.5808 35.584 79.4395 35.208 79.1568 34.968C78.8795 34.728 78.4235 34.608 77.7888 34.608C77.2501 34.608 76.7435 34.68 76.2688 34.824C75.7995 34.9627 75.3648 35.1253 74.9648 35.312L75.1408 33.68C75.3755 33.5573 75.6421 33.4427 75.9408 33.336C76.2448 33.224 76.5835 33.1333 76.9568 33.064C77.3301 32.9947 77.7328 32.96 78.1648 32.96C78.8048 32.96 79.3461 33.0373 79.7888 33.192C80.2315 33.3413 80.5835 33.5573 80.8448 33.84C81.1115 34.1227 81.3035 34.4613 81.4208 34.856C81.5381 35.2453 81.5968 35.6773 81.5968 36.152V41H79.5728ZM77.0048 41.184C76.2261 41.184 75.6315 40.9893 75.2208 40.6C74.8155 40.2107 74.6128 39.656 74.6128 38.936V38.712C74.6128 37.9493 74.8475 37.3867 75.3168 37.024C75.7861 36.656 76.5301 36.4027 77.5488 36.264L79.7728 35.96L79.8928 37.28L77.8448 37.576C77.3968 37.6347 77.0768 37.7413 76.8848 37.896C76.6981 38.0507 76.6048 38.2773 76.6048 38.576V38.656C76.6048 38.9493 76.6955 39.1787 76.8768 39.344C77.0635 39.504 77.3541 39.584 77.7488 39.584C78.1008 39.584 78.4021 39.528 78.6528 39.416C78.9035 39.304 79.1088 39.1573 79.2688 38.976C79.4341 38.7893 79.5515 38.5813 79.6208 38.352L79.9088 39.368H79.5568C79.4715 39.704 79.3328 40.0107 79.1408 40.288C78.9541 40.56 78.6901 40.7787 78.3488 40.944C78.0075 41.104 77.5595 41.184 77.0048 41.184ZM78.2128 44.032C77.8501 44.032 77.5808 43.9413 77.4048 43.76C77.2288 43.5787 77.1408 43.3307 77.1408 43.016V42.96C77.1408 42.6453 77.2288 42.3947 77.4048 42.208C77.5808 42.0267 77.8501 41.936 78.2128 41.936C78.5808 41.936 78.8528 42.0267 79.0288 42.208C79.2048 42.3947 79.2928 42.6453 79.2928 42.96V43.016C79.2928 43.3307 79.2048 43.5787 79.0288 43.76C78.8528 43.9413 78.5808 44.032 78.2128 44.032ZM77.1408 30.032H79.2928L80.7488 32.288V32.312H79.1968L78.2528 31.072H78.1808L77.2288 32.312H75.6848V32.288L77.1408 30.032ZM87.7588 41.184C87.2895 41.184 86.8921 41.1093 86.5668 40.96C86.2415 40.8053 85.9775 40.5893 85.7748 40.312C85.5775 40.0347 85.4361 39.7093 85.3508 39.336H84.7668L85.2868 37.768C85.2975 38.1413 85.3721 38.456 85.5108 38.712C85.6548 38.968 85.8521 39.16 86.1028 39.288C86.3588 39.416 86.6575 39.48 86.9988 39.48C87.5161 39.48 87.9108 39.3307 88.1828 39.032C88.4548 38.728 88.5908 38.28 88.5908 37.688V36.4C88.5908 35.8133 88.4575 35.3707 88.1908 35.072C87.9241 34.7733 87.5295 34.624 87.0068 34.624C86.7081 34.624 86.4388 34.6827 86.1988 34.8C85.9588 34.912 85.7588 35.064 85.5988 35.256C85.4388 35.448 85.3241 35.6693 85.2548 35.92L84.7748 34.816H85.3428C85.4281 34.4747 85.5641 34.1653 85.7508 33.888C85.9428 33.6053 86.2068 33.384 86.5428 33.224C86.8841 33.0587 87.3135 32.976 87.8308 32.976C88.7535 32.976 89.4548 33.2747 89.9348 33.872C90.4148 34.464 90.6548 35.3413 90.6548 36.504V37.592C90.6548 38.7653 90.4121 39.6587 89.9268 40.272C89.4468 40.88 88.7241 41.184 87.7588 41.184ZM83.2788 43.752V33.152H85.3268L85.2468 35.144L85.2868 35.504V38.648L85.2628 39.016L85.3188 41.168V43.752H83.2788ZM42.3102 59V54.232C42.3102 53.912 42.2702 53.6373 42.1902 53.408C42.1102 53.1733 41.9769 52.992 41.7902 52.864C41.6089 52.736 41.3609 52.672 41.0462 52.672C40.7582 52.672 40.5075 52.728 40.2942 52.84C40.0809 52.952 39.9075 53.104 39.7742 53.296C39.6409 53.4827 39.5422 53.696 39.4782 53.936L39.2542 52.816H39.4622C39.5475 52.48 39.6862 52.1733 39.8782 51.896C40.0702 51.6133 40.3315 51.3893 40.6622 51.224C40.9982 51.0587 41.4222 50.976 41.9342 50.976C42.5049 50.976 42.9662 51.088 43.3182 51.312C43.6755 51.5307 43.9395 51.8613 44.1102 52.304C44.2809 52.7413 44.3662 53.2853 44.3662 53.936V59H42.3102ZM32.6382 59V51.152H34.6862L34.6062 53.144L34.6862 53.232V59H32.6382ZM37.4782 59V54.232C37.4782 53.912 37.4382 53.6373 37.3582 53.408C37.2782 53.1733 37.1449 52.992 36.9582 52.864C36.7769 52.736 36.5289 52.672 36.2142 52.672C35.9209 52.672 35.6675 52.728 35.4542 52.84C35.2462 52.952 35.0729 53.104 34.9342 53.296C34.8009 53.4827 34.7022 53.696 34.6382 53.936L34.3182 52.816H34.7022C34.7822 52.4693 34.9155 52.1573 35.1022 51.88C35.2942 51.6027 35.5529 51.384 35.8782 51.224C36.2035 51.0587 36.6089 50.976 37.0942 50.976C37.8249 50.976 38.3742 51.1627 38.7422 51.536C39.1155 51.9093 39.3502 52.4533 39.4462 53.168C39.4675 53.2747 39.4862 53.4 39.5022 53.544C39.5182 53.6827 39.5262 53.8133 39.5262 53.936V59H37.4782ZM49.4837 59.216C48.2677 59.216 47.345 58.904 46.7157 58.28C46.0917 57.656 45.7797 56.768 45.7797 55.616V54.552C45.7797 53.3947 46.0917 52.504 46.7157 51.88C47.345 51.2507 48.2677 50.936 49.4837 50.936C50.6944 50.936 51.6117 51.2507 52.2357 51.88C52.8597 52.504 53.1717 53.3947 53.1717 54.552V55.616C53.1717 56.768 52.8597 57.656 52.2357 58.28C51.617 58.904 50.6997 59.216 49.4837 59.216ZM49.4837 57.576C50.017 57.576 50.4224 57.416 50.6997 57.096C50.9824 56.776 51.1237 56.3173 51.1237 55.72V54.448C51.1237 53.84 50.9824 53.376 50.6997 53.056C50.4224 52.7307 50.017 52.568 49.4837 52.568C48.945 52.568 48.5344 52.7307 48.2517 53.056C47.9744 53.376 47.8357 53.84 47.8357 54.448V55.72C47.8357 56.3173 47.9744 56.776 48.2517 57.096C48.5344 57.416 48.945 57.576 49.4837 57.576ZM51.8757 52.128L51.1877 51.232C51.5237 51.1253 51.769 50.968 51.9237 50.76C52.0837 50.552 52.1637 50.3013 52.1637 50.008C52.1637 49.8853 52.153 49.7653 52.1317 49.648C52.1104 49.5253 52.0864 49.4133 52.0597 49.312H53.8277C53.8597 49.424 53.8864 49.5467 53.9077 49.68C53.9344 49.8133 53.9477 49.9573 53.9477 50.112C53.9477 50.6347 53.785 51.064 53.4597 51.4C53.1397 51.736 52.6117 51.9787 51.8757 52.128ZM50.0277 48.032H52.2037V48.056L50.3077 50.312H48.5797V50.288L50.0277 48.032ZM54.6854 59V51.152H56.7334V59H54.6854ZM55.7094 50.224C55.3201 50.224 55.0321 50.1333 54.8454 49.952C54.6641 49.7653 54.5734 49.5093 54.5734 49.184V49.144C54.5734 48.8187 54.6641 48.5627 54.8454 48.376C55.0321 48.1893 55.3201 48.096 55.7094 48.096C56.0934 48.096 56.3788 48.1893 56.5654 48.376C56.7521 48.5627 56.8454 48.8187 56.8454 49.144V49.184C56.8454 49.5147 56.7521 49.7707 56.5654 49.952C56.3788 50.1333 56.0934 50.224 55.7094 50.224ZM66.9221 59V54.288C66.9221 53.9573 66.8767 53.672 66.7861 53.432C66.7007 53.192 66.5567 53.0053 66.3541 52.872C66.1514 52.7387 65.8741 52.672 65.5221 52.672C65.2127 52.672 64.9407 52.728 64.7061 52.84C64.4767 52.952 64.2874 53.104 64.1381 53.296C63.9941 53.4827 63.8847 53.696 63.8101 53.936L63.4901 52.816H63.8741C63.9594 52.4693 64.1007 52.1573 64.2981 51.88C64.5007 51.6027 64.7727 51.384 65.1141 51.224C65.4607 51.0587 65.8927 50.976 66.4101 50.976C67.0127 50.976 67.5007 51.0907 67.8741 51.32C68.2474 51.544 68.5221 51.88 68.6981 52.328C68.8794 52.776 68.9701 53.3307 68.9701 53.992V59H66.9221ZM61.8101 59V51.152H63.8581L63.7781 53.064L63.8581 53.232V59H61.8101ZM75.7971 59V54.288C75.7971 53.9573 75.7517 53.672 75.6611 53.432C75.5757 53.192 75.4317 53.0053 75.2291 52.872C75.0264 52.7387 74.7491 52.672 74.3971 52.672C74.0877 52.672 73.8184 52.728 73.5891 52.84C73.3597 52.952 73.1704 53.104 73.0211 53.296C72.8771 53.4827 72.7704 53.696 72.7011 53.936L72.2851 52.816H72.7731C72.8637 52.4693 73.0077 52.1573 73.2051 51.88C73.4024 51.6027 73.6717 51.384 74.0131 51.224C74.3544 51.0587 74.7784 50.976 75.2851 50.976C75.8877 50.976 76.3757 51.0907 76.7491 51.32C77.1224 51.544 77.3971 51.88 77.5731 52.328C77.7544 52.776 77.8451 53.3307 77.8451 53.992V59H75.7971ZM70.6851 59V48.424H72.7251V50.84L72.6851 53.28L72.7331 53.432V59H70.6851ZM84.1041 59L84.1761 57.08L84.1201 56.904V54.448L84.1121 54.096C84.1121 53.584 83.9707 53.208 83.6881 52.968C83.4107 52.728 82.9547 52.608 82.3201 52.608C81.7814 52.608 81.2747 52.68 80.8001 52.824C80.3307 52.9627 79.8961 53.1253 79.4961 53.312L79.6721 51.68C79.9067 51.5573 80.1734 51.4427 80.4721 51.336C80.7761 51.224 81.1147 51.1333 81.4881 51.064C81.8614 50.9947 82.2641 50.96 82.6961 50.96C83.3361 50.96 83.8774 51.0373 84.3201 51.192C84.7627 51.3413 85.1147 51.5573 85.3761 51.84C85.6427 52.1227 85.8347 52.4613 85.9521 52.856C86.0694 53.2453 86.1281 53.6773 86.1281 54.152V59H84.1041ZM81.5361 59.184C80.7574 59.184 80.1627 58.9893 79.7521 58.6C79.3467 58.2107 79.1441 57.656 79.1441 56.936V56.712C79.1441 55.9493 79.3787 55.3867 79.8481 55.024C80.3174 54.656 81.0614 54.4027 82.0801 54.264L84.3041 53.96L84.4241 55.28L82.3761 55.576C81.9281 55.6347 81.6081 55.7413 81.4161 55.896C81.2294 56.0507 81.1361 56.2773 81.1361 56.576V56.656C81.1361 56.9493 81.2267 57.1787 81.4081 57.344C81.5947 57.504 81.8854 57.584 82.2801 57.584C82.6321 57.584 82.9334 57.528 83.1841 57.416C83.4347 57.304 83.6401 57.1573 83.8001 56.976C83.9654 56.7893 84.0827 56.5813 84.1521 56.352L84.4401 57.368H84.0881C84.0027 57.704 83.8641 58.0107 83.6721 58.288C83.4854 58.56 83.2214 58.7787 82.8801 58.944C82.5387 59.104 82.0907 59.184 81.5361 59.184ZM85.9281 46.464H87.7121V46.488L86.2081 48.464H84.7601V48.448L85.9281 46.464ZM81.6721 48.048H83.8241L85.2801 50.304V50.328H83.7281L82.7841 49.088H82.7121L81.7601 50.328H80.2161V50.304L81.6721 48.048ZM90.7719 59.168C90.1053 59.168 89.5719 59.0693 89.1719 58.872C88.7773 58.6693 88.4919 58.3653 88.3159 57.96C88.1399 57.5547 88.0519 57.056 88.0519 56.464V51.888H90.0839V56.16C90.0839 56.5867 90.1799 56.9013 90.3719 57.104C90.5693 57.3013 90.9133 57.4 91.4039 57.4C91.6919 57.4 91.9693 57.3707 92.2359 57.312C92.5026 57.248 92.7479 57.1653 92.9719 57.064L92.7959 58.776C92.5293 58.8987 92.2226 58.9947 91.8759 59.064C91.5346 59.1333 91.1666 59.168 90.7719 59.168ZM86.9159 52.832V51.216H92.8999L92.7239 52.832H86.9159ZM88.0759 51.368L88.0679 49.288L90.1079 49.08L90.0279 51.368H88.0759Z" fill="#605E5C"/>
<circle cx="62.4999" cy="43.4999" r="39.7477" transform="rotate(4.31373 62.4999 43.4999)" stroke="#605E5C" stroke-linecap="round"/>
<path d="M74.0537 94.0172C74.0442 93.7413 74.2602 93.5098 74.5362 93.5003C74.8121 93.4908 75.0436 93.7068 75.0531 93.9828L74.0537 94.0172ZM70.7593 114.604L70.3069 114.391L70.7593 114.604ZM51.3675 120.848L51.5019 120.367L51.3675 120.848ZM40.3015 107.437L40.7856 107.312L40.3015 107.437ZM43.7267 100.64L43.772 100.142L43.7267 100.64ZM46.4669 108.491L45.9678 108.521L46.4669 108.491ZM43.4632 126.618L43.8593 126.924L43.4632 126.618ZM21.1205 133.785L21.1078 133.285L21.1205 133.785ZM5.10117 133.337L5.10228 132.837L5.11535 132.837L5.1284 132.838L5.10117 133.337ZM0 133.337L4.99775 130.446L5.00224 136.22L0 133.337ZM75.0922 95.7592C75.0946 96.0353 74.8728 96.2611 74.5967 96.2636C74.3205 96.2661 74.0947 96.0442 74.0922 95.7681L75.0922 95.7592ZM74.0193 99.2626C74.034 98.9869 74.2694 98.7752 74.5451 98.7898C74.8209 98.8045 75.0326 99.0399 75.0179 99.3157L74.0193 99.2626ZM74.6979 102.866C74.6624 103.139 74.4116 103.333 74.1378 103.297C73.8639 103.262 73.6707 103.011 73.7062 102.737L74.6979 102.866ZM73.1124 106.169C73.1714 105.899 73.4379 105.728 73.7077 105.787C73.9774 105.846 74.1483 106.113 74.0894 106.382L73.1124 106.169ZM73.1688 109.833C73.0854 110.097 72.8045 110.242 72.5412 110.159C72.2779 110.076 72.1321 109.795 72.2154 109.531L73.1688 109.833ZM71.0152 112.799C71.1219 112.544 71.4149 112.424 71.6696 112.531C71.9243 112.637 72.0442 112.93 71.9375 113.185L71.0152 112.799ZM70.2694 116.498C70.117 116.728 69.8068 116.791 69.5765 116.639C69.3462 116.486 69.2831 116.176 69.4355 115.946L70.2694 116.498ZM67.0463 118.548C67.2633 118.377 67.5776 118.415 67.7484 118.632C67.9192 118.849 67.8818 119.163 67.6648 119.334L67.0463 118.548ZM64.3157 121.22C64.058 121.319 63.7687 121.191 63.6695 120.933C63.5703 120.675 63.6989 120.386 63.9566 120.287L64.3157 121.22ZM60.4801 121.148C60.7539 121.112 61.0048 121.305 61.0403 121.579C61.0759 121.853 60.8828 122.104 60.6089 122.139L60.4801 121.148ZM56.816 122.268C56.5403 122.253 56.3288 122.018 56.3438 121.742C56.3587 121.466 56.5943 121.255 56.8701 121.27L56.816 122.268ZM53.2703 120.796C53.5407 120.852 53.7147 121.116 53.6588 121.387C53.6029 121.657 53.3384 121.831 53.068 121.775L53.2703 120.796ZM49.0309 120.467C48.7849 120.341 48.6873 120.04 48.8129 119.794C48.9384 119.548 49.2396 119.451 49.4855 119.576L49.0309 120.467ZM46.0033 116.96C46.196 117.157 46.1919 117.474 45.9942 117.667C45.7964 117.859 45.4799 117.855 45.2871 117.657L46.0033 116.96ZM42.478 113.958C42.3366 113.721 42.4142 113.414 42.6514 113.272C42.8886 113.131 43.1955 113.209 43.3369 113.446L42.478 113.958ZM41.4436 109.433C41.5377 109.693 41.4034 109.98 41.1438 110.074C40.8842 110.168 40.5975 110.033 40.5034 109.774L41.4436 109.433ZM39.622 105.228C39.6367 104.952 39.8722 104.741 40.148 104.755C40.4237 104.77 40.6353 105.006 40.6206 105.281L39.622 105.228ZM42.0062 101.641C41.7964 101.82 41.4808 101.796 41.3012 101.586C41.1217 101.376 41.1462 101.061 41.3559 100.881L42.0062 101.641ZM45.6999 101.862C45.817 102.112 45.7092 102.41 45.4591 102.527C45.209 102.644 44.9113 102.536 44.7942 102.286L45.6999 101.862ZM45.7753 106.375C45.7416 106.101 45.9365 105.851 46.2105 105.817C46.4846 105.784 46.7341 105.979 46.7678 106.253L45.7753 106.375ZM47.1058 110.81C47.1209 111.086 46.9096 111.322 46.6338 111.337C46.3581 111.352 46.1224 111.14 46.1073 110.865L47.1058 110.81ZM46.2156 115.525C46.2219 115.249 46.4508 115.03 46.7268 115.036C47.0029 115.043 47.2216 115.271 47.2154 115.548L46.2156 115.525ZM46.7363 120.305C46.6826 120.576 46.4194 120.752 46.1486 120.698C45.8777 120.645 45.7016 120.382 45.7554 120.111L46.7363 120.305ZM44.285 124.408C44.4131 124.164 44.7153 124.069 44.9599 124.197C45.2045 124.325 45.299 124.628 45.1708 124.872L44.285 124.408ZM42.4561 128.481C42.2563 128.671 41.9398 128.664 41.7492 128.464C41.5587 128.264 41.5662 127.947 41.766 127.757L42.4561 128.481ZM38.6003 130.031C38.8432 129.899 39.1466 129.99 39.2781 130.233C39.4095 130.475 39.3192 130.779 39.0764 130.91L38.6003 130.031ZM35.2617 132.498C34.9982 132.58 34.7176 132.434 34.6348 132.17C34.5521 131.907 34.6987 131.626 34.9621 131.544L35.2617 132.498ZM31.0962 132.468C31.3682 132.421 31.6275 132.602 31.6754 132.874C31.7232 133.146 31.5416 133.405 31.2697 133.453L31.0962 132.468ZM27.219 133.976C26.944 134.001 26.7012 133.798 26.6767 133.523C26.6522 133.248 26.8553 133.005 27.1304 132.98L27.219 133.976ZM23.121 133.223C23.3969 133.213 23.6291 133.428 23.6395 133.704C23.6499 133.98 23.4346 134.212 23.1587 134.222L23.121 133.223ZM19.1186 134.305C18.8425 134.305 18.619 134.08 18.6195 133.804C18.62 133.528 18.8442 133.305 19.1204 133.305L19.1186 134.305ZM15.1236 133.243C15.3997 133.25 15.6177 133.48 15.6105 133.756C15.6033 134.032 15.3737 134.25 15.0977 134.243L15.1236 133.243ZM11.0861 134.111C10.8102 134.1 10.5951 133.868 10.6058 133.592C10.6165 133.316 10.8488 133.101 11.1247 133.112L11.0861 134.111ZM7.12151 132.938C7.39734 132.951 7.61024 133.186 7.59704 133.462C7.58383 133.737 7.34953 133.95 7.0737 133.937L7.12151 132.938ZM3.82574 133.836C3.54959 133.835 3.32583 133.611 3.32595 133.335C3.32607 133.059 3.55003 132.835 3.82617 132.836L3.82574 133.836ZM1.27397 132.836C1.55012 132.836 1.77411 133.06 1.77428 133.336C1.77444 133.612 1.55072 133.836 1.27458 133.836L1.27397 132.836ZM75.0531 93.9828C75.0737 94.5793 75.0869 95.1713 75.0922 95.7592L74.0922 95.7681C74.0871 95.1892 74.074 94.6058 74.0537 94.0172L75.0531 93.9828ZM75.0179 99.3157C74.9544 100.51 74.8499 101.692 74.6979 102.866L73.7062 102.737C73.8547 101.59 73.9571 100.434 74.0193 99.2626L75.0179 99.3157ZM74.0894 106.382C73.8375 107.535 73.5327 108.684 73.1688 109.833L72.2154 109.531C72.5699 108.412 72.867 107.292 73.1124 106.169L74.0894 106.382ZM71.9375 113.185C71.7101 113.728 71.4684 114.271 71.2118 114.817L70.3069 114.391C70.5575 113.858 70.7934 113.328 71.0152 112.799L71.9375 113.185ZM71.2118 114.817C70.9294 115.417 70.6143 115.977 70.2694 116.498L69.4355 115.946C69.7531 115.466 70.0446 114.948 70.3069 114.391L71.2118 114.817ZM67.6648 119.334C66.6447 120.137 65.5158 120.758 64.3157 121.22L63.9566 120.287C65.0718 119.858 66.1116 119.284 67.0463 118.548L67.6648 119.334ZM60.6089 122.139C59.3683 122.301 58.094 122.337 56.816 122.268L56.8701 121.27C58.0937 121.336 59.3064 121.3 60.4801 121.148L60.6089 122.139ZM53.068 121.775C52.4498 121.647 51.8371 121.498 51.2331 121.33L51.5019 120.367C52.0843 120.529 52.6749 120.673 53.2703 120.796L53.068 121.775ZM51.2331 121.33C50.4642 121.115 49.7298 120.824 49.0309 120.467L49.4855 119.576C50.1281 119.904 50.8005 120.171 51.5019 120.367L51.2331 121.33ZM45.2871 117.657C44.2125 116.555 43.2747 115.294 42.478 113.958L43.3369 113.446C44.0993 114.724 44.9907 115.921 46.0033 116.96L45.2871 117.657ZM40.5034 109.774C40.2352 109.033 40.0062 108.292 39.8175 107.562L40.7856 107.312C40.9664 108.011 41.186 108.722 41.4436 109.433L40.5034 109.774ZM39.8175 107.562C39.6476 106.906 39.5766 106.079 39.622 105.228L40.6206 105.281C40.5794 106.052 40.6464 106.774 40.7856 107.312L39.8175 107.562ZM41.3559 100.881C41.9841 100.343 42.7916 100.053 43.772 100.142L43.6815 101.138C42.9707 101.073 42.4301 101.278 42.0062 101.641L41.3559 100.881ZM43.772 100.142C44.7061 100.227 45.3091 101.027 45.6999 101.862L44.7942 102.286C44.4275 101.503 44.0408 101.17 43.6815 101.138L43.772 100.142ZM46.7678 106.253C46.8877 107.228 46.9414 108.056 46.966 108.461L45.9678 108.521C45.9437 108.124 45.8915 107.32 45.7753 106.375L46.7678 106.253ZM46.966 108.461C47.0125 109.229 47.0624 110.016 47.1058 110.81L46.1073 110.865C46.0641 110.074 46.0146 109.293 45.9678 108.521L46.966 108.461ZM47.2154 115.548C47.1791 117.147 47.0449 118.749 46.7363 120.305L45.7554 120.111C46.0496 118.627 46.1803 117.086 46.2156 115.525L47.2154 115.548ZM45.1708 124.872C44.7995 125.581 44.3654 126.267 43.8593 126.924L43.0672 126.313C43.5364 125.704 43.9395 125.068 44.285 124.408L45.1708 124.872ZM43.8593 126.924C43.4265 127.485 42.9571 128.003 42.4561 128.481L41.766 127.757C42.2314 127.313 42.6665 126.833 43.0672 126.313L43.8593 126.924ZM39.0764 130.91C37.8752 131.56 36.5909 132.08 35.2617 132.498L34.9621 131.544C36.2413 131.142 37.4648 130.646 38.6003 130.031L39.0764 130.91ZM31.2697 133.453C29.9208 133.691 28.5594 133.857 27.219 133.976L27.1304 132.98C28.4492 132.863 29.7815 132.7 31.0962 132.468L31.2697 133.453ZM23.1587 134.222C22.4657 134.249 21.7886 134.268 21.1332 134.285L21.1078 133.285C21.761 133.268 22.4336 133.249 23.121 133.223L23.1587 134.222ZM21.1332 134.285C20.5221 134.3 19.8425 134.306 19.1186 134.305L19.1204 133.305C19.8381 133.306 20.5082 133.3 21.1078 133.285L21.1332 134.285ZM15.0977 134.243C13.7373 134.207 12.3627 134.16 11.0861 134.111L11.1247 133.112C12.3983 133.161 13.7685 133.208 15.1236 133.243L15.0977 134.243ZM7.0737 133.937C6.45914 133.908 5.9594 133.882 5.61322 133.865C5.44012 133.856 5.30541 133.849 5.21392 133.844C5.16817 133.841 5.13323 133.839 5.1097 133.838C5.09794 133.838 5.08902 133.837 5.08304 133.837C5.08004 133.837 5.07778 133.836 5.07626 133.836C5.0755 133.836 5.07493 133.836 5.07454 133.836C5.07434 133.836 5.0742 133.836 5.0741 133.836C5.07404 133.836 5.07401 133.836 5.07398 133.836C5.07397 133.836 5.07395 133.836 5.07395 133.836C5.07394 133.836 5.07394 133.836 5.10117 133.337C5.1284 132.838 5.1284 132.838 5.1284 132.838C5.1284 132.838 5.12841 132.838 5.12843 132.838C5.12844 132.838 5.12847 132.838 5.12852 132.838C5.1286 132.838 5.12874 132.838 5.12891 132.838C5.12928 132.838 5.12982 132.838 5.13055 132.838C5.13202 132.838 5.13422 132.838 5.13716 132.838C5.14304 132.838 5.15183 132.839 5.16348 132.84C5.18678 132.841 5.22149 132.843 5.26699 132.845C5.35799 132.85 5.49218 132.857 5.66473 132.866C6.00983 132.884 6.50832 132.909 7.12151 132.938L7.0737 133.937ZM5.10005 133.837C4.74818 133.836 4.30428 133.836 3.82574 133.836L3.82617 132.836C4.30495 132.836 4.74953 132.836 5.10228 132.837L5.10005 133.837Z" fill="#605E5C"/>
</svg>
