<svg width="762" height="120" viewBox="0 0 762 120" fill="none" xmlns="http://www.w3.org/2000/svg">
<path d="M594.54 104V89.1H596.74L602.34 96.86H601.24L606.74 89.1H608.94V104H606.6V91.88L607.48 92.12L601.86 99.8H601.62L596.12 92.12L596.9 91.88V104H594.54ZM615.66 104.24C614.847 104.24 614.134 104.06 613.52 103.7C612.907 103.327 612.427 102.813 612.08 102.16C611.747 101.493 611.58 100.727 611.58 99.86V93.18H613.84V99.66C613.84 100.153 613.94 100.587 614.14 100.96C614.34 101.333 614.62 101.627 614.98 101.84C615.34 102.04 615.754 102.14 616.22 102.14C616.7 102.14 617.12 102.033 617.48 101.82C617.84 101.607 618.12 101.307 618.32 100.92C618.534 100.533 618.64 100.08 618.64 99.56V93.18H620.88V104H618.74V101.88L618.98 102.16C618.727 102.827 618.307 103.34 617.72 103.7C617.134 104.06 616.447 104.24 615.66 104.24ZM615.24 91.2L613.06 87.9H616.02L617.48 91.2H615.24ZM626.759 104.24C626.026 104.24 625.379 104.113 624.819 103.86C624.273 103.593 623.846 103.233 623.539 102.78C623.233 102.313 623.079 101.767 623.079 101.14C623.079 100.553 623.206 100.027 623.459 99.56C623.726 99.0933 624.133 98.7 624.679 98.38C625.226 98.06 625.913 97.8333 626.739 97.7L630.499 97.08V98.86L627.179 99.44C626.579 99.5467 626.139 99.74 625.859 100.02C625.579 100.287 625.439 100.633 625.439 101.06C625.439 101.473 625.593 101.813 625.899 102.08C626.219 102.333 626.626 102.46 627.119 102.46C627.733 102.46 628.266 102.327 628.719 102.06C629.186 101.793 629.546 101.44 629.799 101C630.053 100.547 630.179 100.047 630.179 99.5V96.72C630.179 96.1867 629.979 95.7533 629.579 95.42C629.193 95.0733 628.673 94.9 628.019 94.9C627.419 94.9 626.893 95.06 626.439 95.38C625.999 95.6867 625.673 96.0867 625.459 96.58L623.579 95.64C623.779 95.1067 624.106 94.64 624.559 94.24C625.013 93.8267 625.539 93.5067 626.139 93.28C626.753 93.0533 627.399 92.94 628.079 92.94C628.933 92.94 629.686 93.1 630.339 93.42C631.006 93.74 631.519 94.1867 631.879 94.76C632.253 95.32 632.439 95.9733 632.439 96.72V104H630.279V102.04L630.739 102.1C630.486 102.54 630.159 102.92 629.759 103.24C629.373 103.56 628.926 103.807 628.419 103.98C627.926 104.153 627.373 104.24 626.759 104.24ZM645.138 104V100.64H638.038V98.68L645.038 89.1H647.378V98.68H649.438V100.64H647.378V104H645.138ZM639.778 99.54L639.398 98.68H645.138V90.98L645.778 91.18L639.778 99.54ZM655.224 104V89.1H660.644C661.644 89.1 662.524 89.2867 663.284 89.66C664.044 90.02 664.637 90.5533 665.064 91.26C665.504 91.9533 665.724 92.7867 665.724 93.76C665.724 94.7867 665.464 95.6667 664.944 96.4C664.437 97.1333 663.75 97.6667 662.884 98L666.324 104H663.644L659.984 97.5L661.524 98.4H657.584V104H655.224ZM657.584 96.3H660.684C661.23 96.3 661.704 96.1933 662.104 95.98C662.504 95.7667 662.81 95.4733 663.024 95.1C663.25 94.7133 663.364 94.26 663.364 93.74C663.364 93.22 663.25 92.7733 663.024 92.4C662.81 92.0133 662.504 91.72 662.104 91.52C661.704 91.3067 661.23 91.2 660.684 91.2H657.584V96.3ZM672.564 104.24C671.484 104.24 670.524 103.993 669.684 103.5C668.857 102.993 668.211 102.313 667.744 101.46C667.277 100.593 667.044 99.6267 667.044 98.56C667.044 97.4667 667.277 96.5 667.744 95.66C668.224 94.82 668.864 94.16 669.664 93.68C670.464 93.1867 671.371 92.94 672.384 92.94C673.197 92.94 673.924 93.08 674.564 93.36C675.204 93.64 675.744 94.0267 676.184 94.52C676.624 95 676.957 95.5533 677.184 96.18C677.424 96.8067 677.544 97.4733 677.544 98.18C677.544 98.3533 677.537 98.5333 677.524 98.72C677.511 98.9067 677.484 99.08 677.444 99.24H668.824V97.44H676.164L675.084 98.26C675.217 97.6067 675.171 97.0267 674.944 96.52C674.731 96 674.397 95.5933 673.944 95.3C673.504 94.9933 672.984 94.84 672.384 94.84C671.784 94.84 671.251 94.9933 670.784 95.3C670.317 95.5933 669.957 96.02 669.704 96.58C669.451 97.1267 669.351 97.7933 669.404 98.58C669.337 99.3133 669.437 99.9533 669.704 100.5C669.984 101.047 670.371 101.473 670.864 101.78C671.371 102.087 671.944 102.24 672.584 102.24C673.237 102.24 673.791 102.093 674.244 101.8C674.711 101.507 675.077 101.127 675.344 100.66L677.184 101.56C676.971 102.067 676.637 102.527 676.184 102.94C675.744 103.34 675.211 103.66 674.584 103.9C673.971 104.127 673.297 104.24 672.564 104.24ZM679.75 104V88.86H682.01V104H679.75ZM689.872 104.24C688.832 104.24 687.879 103.993 687.012 103.5C686.159 103.007 685.479 102.333 684.972 101.48C684.465 100.627 684.212 99.66 684.212 98.58C684.212 97.4867 684.465 96.52 684.972 95.68C685.479 94.8267 686.159 94.16 687.012 93.68C687.865 93.1867 688.819 92.94 689.872 92.94C690.939 92.94 691.892 93.1867 692.732 93.68C693.585 94.16 694.259 94.8267 694.752 95.68C695.259 96.52 695.512 97.4867 695.512 98.58C695.512 99.6733 695.259 100.647 694.752 101.5C694.245 102.353 693.565 103.027 692.712 103.52C691.859 104 690.912 104.24 689.872 104.24ZM689.872 102.14C690.512 102.14 691.079 101.987 691.572 101.68C692.065 101.373 692.452 100.953 692.732 100.42C693.025 99.8733 693.172 99.26 693.172 98.58C693.172 97.9 693.025 97.2933 692.732 96.76C692.452 96.2267 692.065 95.8067 691.572 95.5C691.079 95.1933 690.512 95.04 689.872 95.04C689.245 95.04 688.679 95.1933 688.172 95.5C687.679 95.8067 687.285 96.2267 686.992 96.76C686.712 97.2933 686.572 97.9 686.572 98.58C686.572 99.26 686.712 99.8733 686.992 100.42C687.285 100.953 687.679 101.373 688.172 101.68C688.679 101.987 689.245 102.14 689.872 102.14ZM700.958 104.24C700.225 104.24 699.578 104.113 699.018 103.86C698.472 103.593 698.045 103.233 697.738 102.78C697.432 102.313 697.278 101.767 697.278 101.14C697.278 100.553 697.405 100.027 697.658 99.56C697.925 99.0933 698.332 98.7 698.878 98.38C699.425 98.06 700.112 97.8333 700.938 97.7L704.698 97.08V98.86L701.378 99.44C700.778 99.5467 700.338 99.74 700.058 100.02C699.778 100.287 699.638 100.633 699.638 101.06C699.638 101.473 699.792 101.813 700.098 102.08C700.418 102.333 700.825 102.46 701.318 102.46C701.932 102.46 702.465 102.327 702.918 102.06C703.385 101.793 703.745 101.44 703.998 101C704.252 100.547 704.378 100.047 704.378 99.5V96.72C704.378 96.1867 704.178 95.7533 703.778 95.42C703.392 95.0733 702.872 94.9 702.218 94.9C701.618 94.9 701.092 95.06 700.638 95.38C700.198 95.6867 699.872 96.0867 699.658 96.58L697.778 95.64C697.978 95.1067 698.305 94.64 698.758 94.24C699.212 93.8267 699.738 93.5067 700.338 93.28C700.952 93.0533 701.598 92.94 702.278 92.94C703.132 92.94 703.885 93.1 704.538 93.42C705.205 93.74 705.718 94.1867 706.078 94.76C706.452 95.32 706.638 95.9733 706.638 96.72V104H704.478V102.04L704.938 102.1C704.685 102.54 704.358 102.92 703.958 103.24C703.572 103.56 703.125 103.807 702.618 103.98C702.125 104.153 701.572 104.24 700.958 104.24ZM714.281 104.24C713.241 104.24 712.308 103.993 711.481 103.5C710.668 102.993 710.021 102.313 709.541 101.46C709.074 100.607 708.841 99.6467 708.841 98.58C708.841 97.5133 709.081 96.5533 709.561 95.7C710.041 94.8467 710.688 94.1733 711.501 93.68C712.314 93.1867 713.234 92.94 714.261 92.94C715.128 92.94 715.894 93.1133 716.561 93.46C717.228 93.8067 717.754 94.2867 718.141 94.9L717.801 95.42V88.86H720.041V104H717.901V101.8L718.161 102.22C717.788 102.873 717.254 103.373 716.561 103.72C715.868 104.067 715.108 104.24 714.281 104.24ZM714.501 102.14C715.128 102.14 715.688 101.987 716.181 101.68C716.688 101.373 717.081 100.953 717.361 100.42C717.654 99.8733 717.801 99.26 717.801 98.58C717.801 97.9 717.654 97.2933 717.361 96.76C717.081 96.2267 716.688 95.8067 716.181 95.5C715.688 95.1933 715.128 95.04 714.501 95.04C713.874 95.04 713.308 95.1933 712.801 95.5C712.294 95.8067 711.901 96.2267 711.621 96.76C711.341 97.2933 711.201 97.9 711.201 98.58C711.201 99.26 711.341 99.8733 711.621 100.42C711.901 100.953 712.288 101.373 712.781 101.68C713.288 101.987 713.861 102.14 714.501 102.14ZM727.759 104.24C726.679 104.24 725.719 103.993 724.879 103.5C724.053 102.993 723.406 102.313 722.939 101.46C722.473 100.593 722.239 99.6267 722.239 98.56C722.239 97.4667 722.473 96.5 722.939 95.66C723.419 94.82 724.059 94.16 724.859 93.68C725.659 93.1867 726.566 92.94 727.579 92.94C728.393 92.94 729.119 93.08 729.759 93.36C730.399 93.64 730.939 94.0267 731.379 94.52C731.819 95 732.153 95.5533 732.379 96.18C732.619 96.8067 732.739 97.4733 732.739 98.18C732.739 98.3533 732.733 98.5333 732.719 98.72C732.706 98.9067 732.679 99.08 732.639 99.24H724.019V97.44H731.359L730.279 98.26C730.413 97.6067 730.366 97.0267 730.139 96.52C729.926 96 729.593 95.5933 729.139 95.3C728.699 94.9933 728.179 94.84 727.579 94.84C726.979 94.84 726.446 94.9933 725.979 95.3C725.513 95.5933 725.153 96.02 724.899 96.58C724.646 97.1267 724.546 97.7933 724.599 98.58C724.533 99.3133 724.633 99.9533 724.899 100.5C725.179 101.047 725.566 101.473 726.059 101.78C726.566 102.087 727.139 102.24 727.779 102.24C728.433 102.24 728.986 102.093 729.439 101.8C729.906 101.507 730.273 101.127 730.539 100.66L732.379 101.56C732.166 102.067 731.833 102.527 731.379 102.94C730.939 103.34 730.406 103.66 729.779 103.9C729.166 104.127 728.493 104.24 727.759 104.24ZM739.945 104.24C738.905 104.24 737.972 103.993 737.145 103.5C736.332 102.993 735.685 102.313 735.205 101.46C734.738 100.607 734.505 99.6467 734.505 98.58C734.505 97.5133 734.745 96.5533 735.225 95.7C735.705 94.8467 736.352 94.1733 737.165 93.68C737.978 93.1867 738.898 92.94 739.925 92.94C740.792 92.94 741.558 93.1133 742.225 93.46C742.892 93.8067 743.418 94.2867 743.805 94.9L743.465 95.42V88.86H745.705V104H743.565V101.8L743.825 102.22C743.452 102.873 742.918 103.373 742.225 103.72C741.532 104.067 740.772 104.24 739.945 104.24ZM740.165 102.14C740.792 102.14 741.352 101.987 741.845 101.68C742.352 101.373 742.745 100.953 743.025 100.42C743.318 99.8733 743.465 99.26 743.465 98.58C743.465 97.9 743.318 97.2933 743.025 96.76C742.745 96.2267 742.352 95.8067 741.845 95.5C741.352 95.1933 740.792 95.04 740.165 95.04C739.538 95.04 738.972 95.1933 738.465 95.5C737.958 95.8067 737.565 96.2267 737.285 96.76C737.005 97.2933 736.865 97.9 736.865 98.58C736.865 99.26 737.005 99.8733 737.285 100.42C737.565 100.953 737.952 101.373 738.445 101.68C738.952 101.987 739.525 102.14 740.165 102.14Z" fill="#181A93"/>
<path d="M22.0703 78.0391H1.01562C5.27344 77.1406 7.42188 74.4453 7.42188 69.9531V29.4844C7.42188 26.7891 4.96094 24.25 1.01562 23.3516H26.6016C31.1719 23.3516 35.1172 24.5234 38.4375 26.8672C41.4453 29.0938 43.5156 31.9453 44.7266 35.4609C45.4688 37.5703 45.8203 39.7578 45.8203 41.9844C45.8203 44.0938 45.5078 46.1641 44.8438 48.1562C43.6719 51.7109 41.6016 54.6406 38.5938 56.9453C35.3125 59.4062 31.3281 60.6172 26.6406 60.6172H15.625V69.9531C15.625 74.4453 17.7734 77.1406 22.0703 78.0391ZM15.625 59.1719H17.0312C20.1172 59.1719 22.9688 58.8984 25.625 58.3125C31.2891 57.1016 35.1172 53.5859 37.0703 47.6875C37.6562 45.8906 37.9688 43.9375 37.9688 41.8672C37.9688 39.8359 37.6562 37.8438 36.9922 35.9297C33.7891 26.8281 26.4062 24.7969 17.7344 24.7969H15.625V59.1719ZM88.7891 78H67.7344C71.6406 77.1797 73.6719 74.6797 74.1797 71.9062V53.1562C74.1797 50.3047 73.8672 48.0391 73.2031 46.3594C72.3047 44.5234 71.1328 43.5859 69.6094 43.5859C68.3984 43.5859 67.2266 43.8594 66.1328 44.3672C62.4609 46.125 59.8828 48.7812 58.3594 52.2969V71.9062C58.8281 74.6797 60.8984 77.1797 64.7656 78H43.75C47.6172 77.1797 49.6875 74.6797 50.1562 71.9062V25.7734L44.6484 23.3516L58.3594 20.2656V49.2109C59.4141 47.6094 60.7031 46.2422 62.3047 45.0312C65.3125 42.7266 68.5156 41.5547 71.9531 41.5547C78.9062 41.5547 82.3828 45.4219 82.3828 53.1562V71.9062C82.8516 74.6797 84.8828 77.1797 88.7891 78ZM106.875 78H85.8203C89.7266 77.1797 91.7578 74.6797 92.2266 71.9062V47.0234L86.7188 44.6406L100.43 41.5547V71.9062C100.938 74.6797 102.969 77.1797 106.875 78ZM96.3672 37.9219C95.0391 37.9219 93.9062 37.4531 92.9688 36.5156C92.0312 35.5781 91.5625 34.4453 91.5625 33.1172C91.5625 31.7891 92.0312 30.6562 92.9688 29.7188C93.9062 28.7812 95.0391 28.3125 96.3672 28.3125C97.6953 28.3125 98.8281 28.7812 99.7656 29.7188C100.703 30.6562 101.172 31.7891 101.172 33.1172C101.172 34.4453 100.703 35.5781 99.7656 36.5156C98.8281 37.4531 97.6953 37.9219 96.3672 37.9219ZM131.992 37.9219L131.133 38.9375L123.086 32.5312L115.039 38.9375L114.18 37.9219L122.109 29.0156H124.062L131.992 37.9219ZM124.453 79.1719C118.047 79.1719 112.812 76.4766 108.711 71.0859C106.172 67.6484 104.883 63.8984 104.883 59.7969C104.766 49.3672 113.047 40.2656 123.633 40.4219C128.047 40.4219 131.68 41.5938 134.57 43.9375C137.461 46.2812 139.258 49.6797 139.961 54.1719L140.156 55.5781L112.891 60.4219C114.219 68.1172 119.336 74.875 128.398 74.875C131.523 74.8359 135.547 73.7812 138.789 71.6328C137.578 73.9766 135.625 75.8125 132.969 77.1797C130.312 78.5078 127.461 79.1719 124.453 79.1719ZM112.656 59.0156L133.633 55.2656C133.281 51.9453 132.227 49.0156 130.469 46.3984C128.398 43.3125 125.859 41.7891 122.812 41.7891C119.141 41.7891 116.367 43.5859 114.531 47.2188C113.164 49.8359 112.5 52.8438 112.5 56.2812C112.5 57.1797 112.539 58.0781 112.656 59.0156ZM180.078 74.9531L166.406 78V71.6328C165.508 72.7266 164.531 73.7031 163.398 74.5625C160.391 76.8672 157.148 78 153.711 78C146.758 78 143.281 74.1328 143.281 66.4375V47.6875C142.812 44.9141 140.781 42.4531 136.875 41.5547H157.93C154.023 42.4531 151.992 44.9141 151.484 47.6875V66.4375C151.484 69.25 151.797 71.5156 152.461 73.2344C153.359 75.0703 154.57 76.0078 156.094 76.0078C157.227 76.0078 158.359 75.7344 159.57 75.1875C162.5 73.8203 164.766 71.7891 166.406 69.0938V47.6875C165.898 44.9141 163.867 42.4531 159.961 41.5547H181.016C177.109 42.4531 175.078 44.9141 174.57 47.6875V72.5312L180.078 74.9531ZM220.117 78H199.062C202.969 77.1797 205 74.6797 205.508 71.9062V25.7734L200 23.3516L213.711 20.2656V71.9062C214.18 74.6797 216.211 77.1797 220.117 78ZM260.312 74.9531L246.641 78V71.6328C245.742 72.7266 244.766 73.7031 243.633 74.5625C240.625 76.8672 237.383 78 233.945 78C226.992 78 223.516 74.1328 223.516 66.4375V47.6875C223.047 44.9141 221.016 42.4531 217.109 41.5547H238.164C234.258 42.4531 232.227 44.9141 231.719 47.6875V66.4375C231.719 69.25 232.031 71.5156 232.695 73.2344C233.594 75.0703 234.805 76.0078 236.328 76.0078C237.461 76.0078 238.594 75.7344 239.805 75.1875C242.734 73.8203 245 71.7891 246.641 69.0938V47.6875C246.133 44.9141 244.102 42.4531 240.195 41.5547H254.805V42.2578C255.781 41.8672 256.758 41.2031 257.656 40.3047C255.898 39.8359 254.648 38.3125 254.648 36.4375C254.648 34.25 256.445 32.4531 258.633 32.4531C260.859 32.4531 262.656 34.25 262.656 36.4375C262.656 38.8984 261.445 40.8125 259.023 42.1797C257.812 42.8828 256.406 43.3906 254.805 43.7031V72.5312L260.312 74.9531ZM302.266 74.9531L288.594 78V71.6328C287.695 72.7266 286.719 73.7031 285.586 74.5625C282.578 76.8672 279.336 78 275.898 78C268.945 78 265.469 74.1328 265.469 66.4375V47.6875C265 44.9141 262.969 42.4531 259.062 41.5547H280.117C276.211 42.4531 274.18 44.9141 273.672 47.6875V66.4375C273.672 69.25 273.984 71.5156 274.648 73.2344C275.547 75.0703 276.758 76.0078 278.281 76.0078C279.414 76.0078 280.547 75.7344 281.758 75.1875C284.688 73.8203 286.953 71.7891 288.594 69.0938V47.6875C288.086 44.9141 286.055 42.4531 282.148 41.5547H303.203C299.297 42.4531 297.266 44.9141 296.758 47.6875V72.5312L302.266 74.9531ZM342.539 79.1719C339.297 79.1719 336.172 78.4688 333.242 77.0625C330.312 75.6562 327.891 73.6641 325.898 71.0859C323.359 67.6484 322.07 63.8984 322.07 59.7969C321.914 48.7422 331.562 40.3047 342.344 40.4219C349.766 40.4219 355.273 42.9219 358.828 47.9609L351.445 53.3906C351.523 47.375 347.461 41.6719 342.266 41.7891C337.109 41.7891 333.594 44.4844 331.68 48.4297C330.508 50.8516 329.922 53.5859 329.922 56.6719C329.922 61.1641 331.094 65.1484 333.477 68.625C336.406 72.9609 340.508 75.1094 345.781 75.1094C347.383 75.0703 349.219 74.7578 351.289 74.1719C353.359 73.5469 355.234 72.6875 356.875 71.6328C355.664 73.9766 353.711 75.8125 351.055 77.1797C348.398 78.5078 345.547 79.1719 342.539 79.1719ZM380.625 37.1406L379.57 38.1562L368.281 29.9141L371.875 28.2344L380.625 37.1406ZM398.281 74.9531L384.609 78V71.6328C383.711 72.7266 382.734 73.7031 381.602 74.5625C378.594 76.8672 375.352 78 371.914 78C364.961 78 361.484 74.1328 361.484 66.4375V47.6875C361.016 44.9141 358.984 42.4531 355.078 41.5547H376.133C372.227 42.4531 370.195 44.9141 369.688 47.6875V66.4375C369.688 69.25 370 71.5156 370.664 73.2344C371.562 75.0703 372.773 76.0078 374.297 76.0078C375.43 76.0078 376.562 75.7344 377.773 75.1875C380.703 73.8203 382.969 71.7891 384.609 69.0938V47.6875C384.102 44.9141 382.07 42.4531 378.164 41.5547H399.219C395.312 42.4531 393.281 44.9141 392.773 47.6875V72.5312L398.281 74.9531ZM442.188 78H421.133C425.039 77.1797 427.07 74.6797 427.578 71.9062V53.1562C427.578 50.3047 427.266 48.0391 426.602 46.3594C425.703 44.5234 424.531 43.5859 423.008 43.5859C421.797 43.5859 420.625 43.8594 419.531 44.3672C416.523 45.8125 414.258 47.8828 412.695 50.5V71.9062C413.164 74.6797 415.195 77.1797 419.102 78H398.047C401.953 77.1797 403.984 74.6797 404.492 71.9062V47.0234L398.984 44.6406L412.695 41.5547V47.9609C413.555 46.8672 414.57 45.8906 415.703 45.0312C418.711 42.7266 421.914 41.5547 425.352 41.5547C432.305 41.5547 435.781 45.4219 435.781 53.1562V71.9062C436.25 74.6797 438.281 77.1797 442.188 78ZM458.984 119.836C447.148 119.914 438.281 112.336 435.625 103.195C435.078 101.32 434.805 99.4062 434.805 97.4531C434.805 96.1641 434.922 94.8359 435.156 93.5469L443.906 95.8125C442.695 98.5078 442.109 101.008 442.109 103.352C442.109 104.719 442.461 106.555 443.203 108.898C443.945 111.242 445.898 113.43 449.062 115.5C452.227 117.57 455.781 118.625 459.805 118.625C464.766 118.625 468.945 115.969 471.875 112.023C474.648 108.312 476.016 104.211 476.016 99.7969C476.016 99.3672 475.977 98.4297 475.859 97.0625C475.781 95.6953 475.156 94.0156 473.945 92.0234C471.562 88.0781 466.914 85.4609 459.453 85.4609C452.734 85.4609 447.422 87.3359 442.617 89.7969L442.07 88.5469C446.992 85.9297 451.094 82.5703 454.375 78.5078C450.273 77.2188 446.953 74.875 444.375 71.4766C441.836 68.0781 440.547 64.2109 440.547 59.7969C440.391 49.0938 449.492 40.0312 460.312 40.1484C461.133 40.1484 461.914 40.1875 462.734 40.3047C463.75 40.4219 464.766 40.4609 465.742 40.4609C467.188 40.4609 468.828 40.3047 470.625 39.9922C472.461 39.6797 474.102 38.7422 475.625 37.2188C473.555 36.6328 472.031 34.7969 472.031 32.5703C472.031 31.2422 472.5 30.1094 473.438 29.1719C474.375 28.2344 475.508 27.7656 476.836 27.7656C478.164 27.7656 479.297 28.2344 480.234 29.1719C481.172 30.1094 481.641 31.2422 481.641 32.5703C481.641 35.5391 480.195 37.8438 477.266 39.4844C474.844 40.8516 471.797 41.5938 468.164 41.7891C471.719 43.3516 474.57 45.7344 476.758 48.9375C478.945 52.1406 480.039 55.7734 480.039 59.7969C480.195 70.5391 471.055 79.5625 460.312 79.4062C458.789 79.4062 457.344 79.25 455.898 78.9375C453.828 81.6328 451.406 84.0547 448.672 86.125C453.984 84.4062 458.594 83.5469 462.5 83.5469C471.133 83.5469 477.07 86.3984 480.469 90.7344C482.695 93.5859 483.828 96.8281 483.828 100.383C483.828 102.102 483.477 104.016 482.773 106.164C482.109 108.312 480.703 110.461 478.633 112.609C474.531 116.945 467.93 119.836 458.984 119.836ZM463.32 77.6094C463.906 77.6094 464.453 77.5312 465 77.4141C467.93 76.5156 470.039 74.1328 471.328 70.3047C471.992 68.3125 472.344 66.2031 472.344 63.8984C472.344 61.75 472.031 59.4844 471.445 57.0625C470 52.1016 467.734 48.1953 464.648 45.3828C462.148 43.1172 459.688 41.9844 457.266 41.9844C456.719 41.9844 456.172 42.0625 455.586 42.1797C452.656 43.0781 450.547 45.4609 449.258 49.2891C448.594 51.2812 448.242 53.3906 448.242 55.6953C448.242 57.8438 448.555 60.1094 449.141 62.5312C450.742 68.0391 453.32 72.1797 456.836 74.9531C459.492 70.5391 460.82 65.6953 460.82 60.4219H462.266V61.125C462.266 66.2812 460.859 71.1641 458.008 75.8125C459.844 77.0234 461.602 77.6094 463.32 77.6094ZM558.359 87.1406L545.352 83.5078V70.1094C543.203 73.1172 540.469 75.3828 537.148 76.9062C533.828 78.4297 530.391 79.1719 526.914 79.1719C514.492 79.1719 500.547 69.7969 500.625 51.2812C500.625 35.2656 514.102 23.3516 529.805 23.3516C542.422 23.3516 549.453 28.3516 553.555 34.25L545.352 42.0625C545.469 32.3359 537.93 24.7578 529.141 24.8359C522.07 24.8359 516.797 27.6484 513.242 33.2344C510.156 38.1172 508.594 44.2891 508.594 51.6719C508.594 69.0938 518.125 77.6094 527.5 77.6094C531.992 77.6094 536.406 75.9297 539.805 72.6875C543.516 69.1719 545.352 64.5625 545.352 58.8203V54.4844C544.297 54.2891 542.5 53.8203 539.922 53C538.086 52.4531 536.68 52.1797 535.625 52.1797C534.375 52.1797 532.812 52.5312 530.977 53.1953C529.141 53.8594 527.422 55.5781 525.781 58.3125L520.82 53.9766C522.773 52.0625 524.766 50.8516 526.797 50.3047C528.164 49.9141 529.531 49.7188 530.859 49.7188C531.523 49.7188 532.539 49.7969 533.867 49.9922C535.195 50.1875 537.422 50.7344 540.508 51.6719C544.336 52.8828 547.383 53.5469 549.609 53.6641C551.289 53.6641 552.539 53.3516 553.438 52.7656C554.336 52.1797 555.195 51.1641 556.055 49.7188L558.125 51.7109L557.617 52.2578C556.445 53.5078 555.078 54.3281 553.555 54.7188V76.4766C553.555 81.0078 555.234 85.2266 558.359 87.1406ZM597.812 74.9531L584.141 78V71.6328C583.242 72.7266 582.266 73.7031 581.133 74.5625C578.125 76.8672 574.883 78 571.445 78C564.492 78 561.016 74.1328 561.016 66.4375V47.6875C560.547 44.9141 558.516 42.4531 554.609 41.5547H575.664C571.758 42.4531 569.727 44.9141 569.219 47.6875V66.4375C569.219 69.25 569.531 71.5156 570.195 73.2344C571.094 75.0703 572.305 76.0078 573.828 76.0078C574.961 76.0078 576.094 75.7344 577.305 75.1875C580.234 73.8203 582.5 71.7891 584.141 69.0938V47.6875C583.633 44.9141 581.602 42.4531 577.695 41.5547H598.75C594.844 42.4531 592.812 44.9141 592.305 47.6875V72.5312L597.812 74.9531ZM617.227 78H596.172C600.078 77.1797 602.109 74.6797 602.617 71.9062V25.7734L597.109 23.3516L610.82 20.2656V71.9062C611.289 74.6797 613.32 77.1797 617.227 78ZM638.789 78H617.734C621.641 77.1797 623.672 74.6797 624.18 71.9062V25.7734L618.672 23.3516L632.383 20.2656V71.9062C632.852 74.6797 634.883 77.1797 638.789 78ZM659.922 78H638.867C642.773 77.1797 644.805 74.6797 645.273 71.9062V47.0234L639.766 44.6406L653.477 41.5547V71.9062C653.984 74.6797 656.016 77.1797 659.922 78ZM649.414 37.9219C648.086 37.9219 646.953 37.4531 646.016 36.5156C645.078 35.5781 644.609 34.4453 644.609 33.1172C644.609 31.7891 645.078 30.6562 646.016 29.7188C646.953 28.7812 648.086 28.3125 649.414 28.3125C650.742 28.3125 651.875 28.7812 652.812 29.7188C653.75 30.6562 654.219 31.7891 654.219 33.1172C654.219 34.4453 653.75 35.5781 652.812 36.5156C651.875 37.4531 650.742 37.9219 649.414 37.9219ZM676.562 78H674.961L661.797 49.9531C660.898 47.8438 659.805 46.0469 658.516 44.5625C657.266 43.0781 655.352 42.0625 652.773 41.5547H673.984C672.07 41.9844 670.625 42.8438 669.688 44.1328C669.18 44.8359 668.945 45.6172 668.945 46.4766C668.945 47.2188 669.141 48 669.492 48.8594L678.906 68.9375C680.273 65.9297 681.719 62.8828 683.164 59.875C684.805 56.4766 686.406 53.0391 687.93 49.6406C688.281 48.7422 688.477 47.9219 688.477 47.1406C688.477 44.6016 686.914 42.7656 683.789 41.5547H697.5C693.945 42.7266 691.25 45.5391 689.375 49.9531C687.852 53.2734 686.328 56.5547 684.727 59.8359C681.797 65.8906 679.062 71.9453 676.562 78ZM711.562 79.1719C705.156 79.1719 699.922 76.4766 695.82 71.0859C693.281 67.6484 691.992 63.8984 691.992 59.7969C691.875 49.3672 700.156 40.2656 710.742 40.4219C715.156 40.4219 718.789 41.5938 721.68 43.9375C724.57 46.2812 726.367 49.6797 727.07 54.1719L727.266 55.5781L700 60.4219C701.328 68.1172 706.445 74.875 715.508 74.875C718.633 74.8359 722.656 73.7812 725.898 71.6328C724.688 73.9766 722.734 75.8125 720.078 77.1797C717.422 78.5078 714.57 79.1719 711.562 79.1719ZM699.766 59.0156L720.742 55.2656C720.391 51.9453 719.336 49.0156 717.578 46.3984C715.508 43.3125 712.969 41.7891 709.922 41.7891C706.25 41.7891 703.477 43.5859 701.641 47.2188C700.273 49.8359 699.609 52.8438 699.609 56.2812C699.609 57.1797 699.648 58.0781 699.766 59.0156ZM746.133 78H725.078C728.984 77.1797 731.016 74.6797 731.523 71.9062V47.0234L726.016 44.6406L739.727 41.5547V49.8359C746.641 44.3281 751.016 41.5547 752.852 41.5547C754.609 41.3984 759.102 46.6328 761.328 48.1562L753.594 53.7422C753.633 51.6328 751.758 44.6016 749.844 44.7969C748.945 44.7969 745.547 47.1016 739.727 51.6719V71.9062C740.195 74.6797 742.266 77.1797 746.133 78Z" fill="url(#paint0_linear_1713_60)"/>
<defs>
<linearGradient id="paint0_linear_1713_60" x1="402" y1="120" x2="398.5" y2="19" gradientUnits="userSpaceOnUse">
<stop offset="0.453125" stop-color="#001E88"/>
<stop offset="1" stop-color="#FF5B5B"/>
</linearGradient>
</defs>
</svg>
