<?xml version="1.0" encoding="utf-8"?>
<!-- Generator: Adobe Illustrator 16.0.0, SVG Export Plug-In . SVG Version: 6.00 Build 0)  -->
<!DOCTYPE svg PUBLIC "-//W3C//DTD SVG 1.1//EN" "http://www.w3.org/Graphics/SVG/1.1/DTD/svg11.dtd">
<svg version="1.1" id="Layer_1" xmlns="http://www.w3.org/2000/svg" xmlns:xlink="http://www.w3.org/1999/xlink" x="0px" y="0px"
	 width="340.158px" height="122.627px" viewBox="0 0 340.158 122.627" enable-background="new 0 0 340.158 122.627"
	 xml:space="preserve">
<g>
	<path d="M115.097,41.196v63.553c0,0.861-0.7,1.559-1.56,1.559h-8.315c-0.86,0-1.558-0.698-1.558-1.559l0.008-59.873
		c0-0.758,0.311-1.169,0.877-1.325c3.089-0.634,5.857-1.822,8.548-3.68C113.91,39.373,115.097,40.166,115.097,41.196z"/>
	<path d="M161.486,105.495l-0.079,0.989c-0.051,0.63-0.586,1.123-1.216,1.101c-13.279-0.475-23.863-9.316-23.863-20.151V20.167
		c0-0.576,0.246-1.166,0.811-1.318c3.081-0.633,5.977-1.817,8.657-3.67c0.808-0.497,2.065,0.292,2.065,1.321v75.669
		c0,6.294,5.509,11.621,12.55,12.047C161.059,104.256,161.537,104.847,161.486,105.495z"/>
	<path d="M186.669,54.583c0,3.159-2.584,5.722-5.771,5.722c-3.187,0-5.771-2.49-5.771-5.651c0-8.815,8.915-15.517,22.253-15.517
		c13.848,0,23.705,9.165,23.707,20.466l-0.008,34.386c0,4.631,3.396,8.488,7.773,9.254c0.396,0.067,0.681,0.421,0.681,0.822v1.466
		c0,0.438-0.361,0.8-0.798,0.781c-5.04-0.196-9.605-2.249-13.021-5.477c-4.592,4.497-11.707,6.596-19.703,6.596
		c-13.848,0-25.073-5.908-25.073-17.212h-0.001c0-8.221,6.009-12.354,9.614-14.271c3.988-2.122,10.112-3.985,14.653-5.912
		c7.359-3.121,14.311-6.071,14.311-12.068v-3.483c0-6.598-4.518-11.855-11.979-11.855C191.283,42.631,186.669,48.361,186.669,54.583
		z M209.516,67.093c-3.764,2.147-8.13,4.106-12.638,6.019c-7.387,3.137-14.367,9.696-14.367,17.111
		c0,8.659,4.676,13.799,13.501,13.799c7.919,0,13.504-5.196,13.504-12.625V67.093z"/>
	<path d="M267.815,105.495l-0.079,0.989c-0.051,0.63-0.587,1.123-1.216,1.101c-13.278-0.475-23.861-9.316-23.861-20.151V20.167
		c-0.002-0.576,0.243-1.166,0.809-1.318c3.08-0.633,5.977-1.817,8.657-3.67c0.811-0.497,2.064,0.292,2.064,1.321v75.669
		c0,6.294,5.512,11.621,12.552,12.047C267.39,104.256,267.869,104.847,267.815,105.495z"/>
	<path d="M293.001,54.583c0,3.159-2.587,5.722-5.773,5.722c-3.187,0-5.768-2.49-5.768-5.651c0-8.815,8.911-15.517,22.25-15.517
		c13.848,0,23.708,9.165,23.708,20.466l-0.008,34.386c0,4.631,3.395,8.488,7.774,9.254c0.395,0.067,0.679,0.421,0.679,0.822v1.466
		c0,0.438-0.36,0.8-0.798,0.781c-5.04-0.196-9.603-2.249-13.021-5.477c-4.592,4.497-11.708,6.596-19.703,6.596
		c-13.848,0-25.075-5.908-25.075-17.212h-0.001c0-8.221,6.009-12.354,9.615-14.271c3.989-2.122,10.112-3.985,14.656-5.912
		c7.356-3.121,14.308-6.071,14.308-12.068v-3.483c0-6.598-4.516-11.855-11.982-11.855C297.613,42.631,293.001,48.361,293.001,54.583
		z M315.845,67.093c-3.762,2.147-8.129,4.106-12.639,6.019c-7.387,3.137-14.366,9.696-14.366,17.111
		c0,8.659,4.677,13.799,13.501,13.799c7.918,0,13.503-5.196,13.503-12.625V67.093z"/>
	<circle fill="#D70051" cx="109.379" cy="26.8" r="7.969"/>
	<path d="M32.005,103.547c-5.642-0.342-7.42-4.611-7.42-9.653V31.247c0-5.043,1.778-9.31,7.419-9.652
		c0.521-0.032,0.903-0.506,0.862-1.026l-0.064-0.791c-0.04-0.506-0.469-0.963-0.975-0.946h-0.517H5.957c0,0-0.372,0.009-0.622,0
		c-0.506-0.017-0.935,0.44-0.976,0.946l-0.062,0.791c-0.043,0.521,0.34,0.995,0.861,1.026c5.64,0.342,7.42,4.609,7.42,9.652v62.647
		c0,5.042-1.779,9.311-7.42,9.653c-0.521,0.031-0.904,0.503-0.861,1.024l0.062,0.792c0.041,0.506,0.47,0.945,0.976,0.945h0.517
		h25.354c0,0,0.372,0,0.621,0c0.506,0,0.935-0.439,0.976-0.945l0.063-0.792C32.908,104.05,32.525,103.578,32.005,103.547z"/>
	<path d="M21.41,52.709c22.389,0,34.998-10.288,45.475-23.278c3.706-4.597,5.112-7.975,10.435-7.975
		c0.547,0,0.904-0.411,0.862-0.833l-0.064-1.236c-0.023-0.241-0.271-0.564-0.731-0.564h-0.229c0,0-22.465,0-22.702,0
		c-0.506,0-0.934,0.306-0.975,0.716l-0.063,1.084c-0.042,0.421,0.366,0.806,0.862,0.833c5.368,0.277,4.356,4.039,1.597,8.756
		c-4.805,8.219-14.89,20.069-34.466,20.069V52.709z"/>
	<path d="M95.955,104.214c-39.999-2.359-28.516-47.939-59.829-52.523c-7.188-1.053-9.384-1.351-13.605-1.351l-0.878,3.09
		c25.671,0,28.18,29.717,38.539,41.99c8.073,9.562,17.448,11.137,35.532,12.178l0,0c0.695,0.025,1.253-0.297,1.308-0.99l0.052-1.185
		C97.132,104.71,96.671,104.259,95.955,104.214z"/>
</g>
</svg>
