<svg width="48" height="47" viewBox="0 0 48 47" fill="none" xmlns="http://www.w3.org/2000/svg">
<g filter="url(#filter0_dd_1868_429)">
<path d="M8 20C8 11.1634 15.1634 4 24 4C32.8366 4 40 11.1634 40 20C40 28.8366 32.8366 36 24 36C15.1634 36 8 28.8366 8 20Z" fill="#1508A8"/>
<path d="M31.2806 26.2193C31.3502 26.289 31.4055 26.3717 31.4432 26.4628C31.4809 26.5538 31.5003 26.6514 31.5003 26.7499C31.5003 26.8485 31.4809 26.9461 31.4432 27.0371C31.4055 27.1281 31.3502 27.2109 31.2806 27.2806C31.2109 27.3502 31.1281 27.4055 31.0371 27.4432C30.9461 27.4809 30.8485 27.5003 30.7499 27.5003C30.6514 27.5003 30.5538 27.4809 30.4628 27.4432C30.3717 27.4055 30.289 27.3502 30.2193 27.2806L23.9999 21.0602L17.7806 27.2806C17.6398 27.4213 17.449 27.5003 17.2499 27.5003C17.0509 27.5003 16.86 27.4213 16.7193 27.2806C16.5786 27.1398 16.4995 26.949 16.4995 26.7499C16.4995 26.5509 16.5786 26.36 16.7193 26.2193L22.9396 19.9999L16.7193 13.7806C16.5786 13.6398 16.4995 13.449 16.4995 13.2499C16.4995 13.0509 16.5786 12.86 16.7193 12.7193C16.86 12.5786 17.0509 12.4995 17.2499 12.4995C17.449 12.4995 17.6398 12.5786 17.7806 12.7193L23.9999 18.9396L30.2193 12.7193C30.36 12.5786 30.5509 12.4995 30.7499 12.4995C30.949 12.4995 31.1398 12.5786 31.2806 12.7193C31.4213 12.86 31.5003 13.0509 31.5003 13.2499C31.5003 13.449 31.4213 13.6398 31.2806 13.7806L25.0602 19.9999L31.2806 26.2193Z" fill="white"/>
</g>
<defs>
<filter id="filter0_dd_1868_429" x="0.8" y="2.38419e-07" width="46.4" height="46.4" filterUnits="userSpaceOnUse" color-interpolation-filters="sRGB">
<feFlood flood-opacity="0" result="BackgroundImageFix"/>
<feColorMatrix in="SourceAlpha" type="matrix" values="0 0 0 0 0 0 0 0 0 0 0 0 0 0 0 0 0 0 127 0" result="hardAlpha"/>
<feOffset dy="3.2"/>
<feGaussianBlur stdDeviation="3.6"/>
<feColorMatrix type="matrix" values="0 0 0 0 0 0 0 0 0 0 0 0 0 0 0 0 0 0 0.13 0"/>
<feBlend mode="normal" in2="BackgroundImageFix" result="effect1_dropShadow_1868_429"/>
<feColorMatrix in="SourceAlpha" type="matrix" values="0 0 0 0 0 0 0 0 0 0 0 0 0 0 0 0 0 0 127 0" result="hardAlpha"/>
<feOffset dy="0.6"/>
<feGaussianBlur stdDeviation="0.9"/>
<feColorMatrix type="matrix" values="0 0 0 0 0 0 0 0 0 0 0 0 0 0 0 0 0 0 0.1 0"/>
<feBlend mode="normal" in2="effect1_dropShadow_1868_429" result="effect2_dropShadow_1868_429"/>
<feBlend mode="normal" in="SourceGraphic" in2="effect2_dropShadow_1868_429" result="shape"/>
</filter>
</defs>
</svg>
